<?xml version="1.0" encoding="UTF-8"?>
<svg version="1.1" xmlns="http://www.w3.org/2000/svg" width="200" height="200">
<path d="M0 0 C1.04349609 0.10908691 2.08699219 0.21817383 3.16210938 0.33056641 C8.44541461 1.01381418 12.05697396 1.6742353 15.8125 5.75 C17.47265625 8.046875 17.47265625 8.046875 18.875 10.5 C19.62330078 11.80324219 19.62330078 11.80324219 20.38671875 13.1328125 C22.2922233 16.63058798 24.08453041 20.16114008 25.8125 23.75 C26.4725 23.09 27.1325 22.43 27.8125 21.75 C30.60631857 21.52307592 33.26902054 21.42576269 36.0625 21.4375 C36.81402344 21.42138672 37.56554687 21.40527344 38.33984375 21.38867188 C43.22152632 21.38441212 46.60275367 22.02642169 50.8125 24.75 C53.63470955 28.98331432 53.59869823 32.77868595 52.8125 37.75 C50.27694894 41.13073474 47.7210128 43.15764294 43.8125 44.75 C44.988125 45.801875 44.988125 45.801875 46.1875 46.875 C50.41922097 51.50974201 51.06121772 55.99369314 51.0871582 62.13500977 C51.09669022 63.37972549 51.10622223 64.62444122 51.11604309 65.90687561 C51.11578169 67.25171945 51.11484478 68.5965633 51.11328125 69.94140625 C51.11717261 71.33332954 51.12150818 72.72525165 51.12626648 74.11717224 C51.13370597 77.02631491 51.13345314 79.93533616 51.12817383 82.84448242 C51.12236955 86.56573973 51.13934374 90.28650086 51.1625185 94.00767612 C51.17727083 96.87907294 51.17812575 99.75035049 51.17500877 102.62177849 C51.17552082 103.99366174 51.18073668 105.36555186 51.19082069 106.73739815 C51.20320108 108.65635479 51.19444173 110.57541233 51.18481445 112.49438477 C51.18544388 113.58437271 51.1860733 114.67436066 51.1867218 115.79737854 C50.76105514 119.15590151 49.81077185 121.04087022 47.8125 123.75 C43.71496223 125.79876888 38.44096243 124.97907799 33.9375 125 C32.83535156 125.020625 31.73320312 125.04125 30.59765625 125.0625 C29.53675781 125.06765625 28.47585937 125.0728125 27.3828125 125.078125 C26.41102051 125.0874707 25.43922852 125.09681641 24.43798828 125.10644531 C21.35992758 124.68855721 20.02516944 123.90153901 17.8125 121.75 C16.8125 118.75 16.8125 118.75 16.8125 108.75 C-17.5075 108.75 -51.8275 108.75 -87.1875 108.75 C-87.1875 111.72 -87.1875 114.69 -87.1875 117.75 C-89.3875 123.35 -89.3875 123.35 -92.1875 124.75 C-96.14019601 125.01911279 -100.10167534 124.98159896 -104.0625 125 C-105.16464844 125.020625 -106.26679687 125.04125 -107.40234375 125.0625 C-108.99369141 125.07023437 -108.99369141 125.07023437 -110.6171875 125.078125 C-111.58897949 125.0874707 -112.56077148 125.09681641 -113.56201172 125.10644531 C-116.64007242 124.68855721 -117.97483056 123.90153901 -120.1875 121.75 C-121.27134373 118.49846881 -121.33404671 116.08353385 -121.36450195 112.66137695 C-121.37733719 111.40609695 -121.39017242 110.15081696 -121.40339661 108.85749817 C-121.4115663 107.48442989 -121.41900959 106.11135713 -121.42578125 104.73828125 C-121.42985678 104.04493368 -121.4339323 103.35158611 -121.43813133 102.63722801 C-121.45897928 98.96461665 -121.47328432 95.29204247 -121.48266602 91.61938477 C-121.49370507 87.84109117 -121.52807866 84.06339063 -121.56783772 80.28530598 C-121.59409153 77.3674771 -121.60236573 74.44978739 -121.60594749 71.53185081 C-121.61079389 70.14008789 -121.622352 68.74833036 -121.64098549 67.35668373 C-121.74036913 59.43969322 -121.68715892 53.42958632 -117.1875 46.75 C-116.1975 46.09 -115.2075 45.43 -114.1875 44.75 C-114.74179688 44.481875 -115.29609375 44.21375 -115.8671875 43.9375 C-119.74614092 41.83927609 -122.55661213 40.24694429 -123.875 35.875 C-124.57017908 31.49702699 -123.4938445 28.54430869 -121.1875 24.75 C-116.73524689 21.09643352 -112.48559454 21.32805079 -107 21.4375 C-106.18080078 21.43427734 -105.36160156 21.43105469 -104.51757812 21.42773438 C-98.45487697 21.48262303 -98.45487697 21.48262303 -96.1875 23.75 C-95.60742188 22.58082031 -95.02734375 21.41164063 -94.4296875 20.20703125 C-93.64133937 18.65849028 -92.85223669 17.11033328 -92.0625 15.5625 C-91.49402344 14.40911133 -91.49402344 14.40911133 -90.9140625 13.23242188 C-88.37165319 8.29591047 -86.0445279 4.71818371 -81.1875 1.75 C-77.59672548 0.70645772 -74.02792767 0.29897919 -70.3125 -0.0625 C-69.20261719 -0.17867676 -68.09273437 -0.29485352 -66.94921875 -0.41455078 C-44.84425205 -2.43409766 -22.06863518 -2.39002425 0 0 Z M-65.625 6.625 C-66.85464478 6.74258667 -66.85464478 6.74258667 -68.10913086 6.86254883 C-72.83867014 7.39497295 -77.1379476 7.92202083 -80.77734375 11.16796875 C-85.28845903 17.09125925 -91.1875 27.07836496 -91.1875 34.75 C-54.2275 34.75 -17.2675 34.75 20.8125 34.75 C18.30984527 26.2432262 18.30984527 26.2432262 14.875 18.375 C14.39160156 17.39789063 13.90820312 16.42078125 13.41015625 15.4140625 C11.1070778 11.57372141 9.40823242 9.19990789 5 7.95703125 C3.948125 7.82683594 2.89625 7.69664063 1.8125 7.5625 C0.265625 7.35560547 0.265625 7.35560547 -1.3125 7.14453125 C-2.59125 7.01433594 -3.87 6.88414063 -5.1875 6.75 C-6.01258057 6.66242432 -6.83766113 6.57484863 -7.68774414 6.48461914 C-16.66727988 5.62154278 -25.61294741 5.55193364 -34.625 5.5625 C-35.41520538 5.56243958 -36.20541077 5.56237915 -37.01956177 5.56231689 C-46.58392658 5.57272254 -56.09595843 5.7130256 -65.625 6.625 Z M-116.1875 30.75 C-115.89766731 34.05683466 -115.89766731 34.05683466 -114.1875 36.75 C-112.33462498 36.82226502 -110.47916122 36.8338122 -108.625 36.8125 C-107.61308594 36.80347656 -106.60117188 36.79445313 -105.55859375 36.78515625 C-104.77613281 36.77355469 -103.99367188 36.76195312 -103.1875 36.75 C-103.1875 34.11 -103.1875 31.47 -103.1875 28.75 C-104.97883978 28.69608007 -106.77063899 28.65724429 -108.5625 28.625 C-109.56023437 28.60179688 -110.55796875 28.57859375 -111.5859375 28.5546875 C-114.35012173 28.47783152 -114.35012173 28.47783152 -116.1875 30.75 Z M32.8125 28.75 C32.8125 31.39 32.8125 34.03 32.8125 36.75 C34.60383978 36.80391993 36.39563899 36.84275571 38.1875 36.875 C39.18523437 36.89820313 40.18296875 36.92140625 41.2109375 36.9453125 C43.97512173 37.02216848 43.97512173 37.02216848 45.8125 34.75 C45.52266731 31.44316534 45.52266731 31.44316534 43.8125 28.75 C41.95962498 28.67773498 40.10416122 28.6661878 38.25 28.6875 C37.23808594 28.69652344 36.22617188 28.70554687 35.18359375 28.71484375 C34.40113281 28.72644531 33.61867187 28.73804687 32.8125 28.75 Z M-113.1875 53.75 C-114.0937299 56.4686897 -114.32246912 58.0996167 -114.34863281 60.8984375 C-114.35824036 61.72939941 -114.3678479 62.56036133 -114.37774658 63.41650391 C-114.38199646 64.31030762 -114.38624634 65.20411133 -114.390625 66.125 C-114.39632507 67.04587402 -114.40202515 67.96674805 -114.40789795 68.91552734 C-114.41734146 70.86229301 -114.42387936 72.80907462 -114.42773438 74.75585938 C-114.4374627 77.73856245 -114.46850121 80.72058298 -114.5 83.703125 C-114.50652794 85.5937459 -114.51177923 87.48437174 -114.515625 89.375 C-114.5279718 90.26880371 -114.5403186 91.16260742 -114.55303955 92.08349609 C-114.55003845 92.91445801 -114.54703735 93.74541992 -114.54394531 94.6015625 C-114.54759094 95.33197754 -114.55123657 96.06239258 -114.55499268 96.81494141 C-114.08018376 99.31508125 -113.17181744 100.20369631 -111.1875 101.75 C-108.86978031 102.16233375 -108.86978031 102.16233375 -106.30078125 102.04296875 C-105.36298828 102.03330078 -104.42519531 102.02363281 -103.45898438 102.01367188 C-102.48251953 101.98853516 -101.50605469 101.96339844 -100.5 101.9375 C-99.51193359 101.92396484 -98.52386719 101.91042969 -97.50585938 101.89648438 C-95.06585769 101.86112203 -92.62695281 101.81177033 -90.1875 101.75 C-90.07543213 100.97736816 -89.96336426 100.20473633 -89.84790039 99.40869141 C-88.93100163 93.32912354 -87.91721441 88.68935152 -84.1875 83.75 C-78.9055795 80.09757272 -75.15297059 79.16118352 -68.80883789 79.21655273 C-68.00136612 79.20793716 -67.19389435 79.19932159 -66.36195374 79.19044495 C-63.71102203 79.16787003 -61.06115484 79.17450811 -58.41015625 79.18359375 C-56.55602202 79.17835424 -54.70189046 79.17207656 -52.84776306 79.16481018 C-48.96844916 79.1544215 -45.08950242 79.15894513 -41.21020508 79.17358398 C-36.252569 79.19076587 -31.29609258 79.16727603 -26.33858585 79.13209438 C-22.51139223 79.11007456 -18.6844741 79.11157299 -14.85723686 79.1198597 C-13.03009202 79.12067677 -11.20292646 79.11386012 -9.37584114 79.09908867 C-6.81503321 79.081558 -4.25628391 79.09625408 -1.69555664 79.11889648 C-0.94985413 79.10720428 -0.20415161 79.09551208 0.56414795 79.08346558 C6.349624 79.18691658 10.30553395 81.15371852 14.8125 84.75 C16.43359375 86.92578125 16.43359375 86.92578125 17.25 89.0625 C17.53746094 89.75988281 17.82492188 90.45726562 18.12109375 91.17578125 C19.06276044 94.6817606 19.42078808 98.14092611 19.8125 101.75 C23.24984063 101.83703823 26.68689837 101.89040272 30.125 101.9375 C31.10146484 101.96263672 32.07792969 101.98777344 33.08398438 102.01367188 C34.49067383 102.02817383 34.49067383 102.02817383 35.92578125 102.04296875 C37.22189331 102.06653442 37.22189331 102.06653442 38.54418945 102.09057617 C41.36139177 101.66758648 42.0585613 100.95243656 43.8125 98.75 C44.26351948 96.79602979 44.26351948 96.79602979 44.20068359 94.63330078 C44.21486832 93.39654099 44.21486832 93.39654099 44.2293396 92.13479614 C44.22326691 91.24726654 44.21719421 90.35973694 44.2109375 89.4453125 C44.21380768 88.52918182 44.21667786 87.61305115 44.21963501 86.66915894 C44.2216767 84.73076764 44.2161395 82.7923558 44.20361328 80.85400391 C44.18759781 77.89308272 44.20343937 74.93353421 44.22265625 71.97265625 C44.22067312 70.08853866 44.21682799 68.20442192 44.2109375 66.3203125 C44.22004654 64.99509079 44.22004654 64.99509079 44.2293396 63.64309692 C44.17473846 58.84604662 43.90521263 55.65751065 40.8125 51.75 C39.05248782 50.05570266 39.05248782 50.05570266 37.0625 48.6875 C36.11117187 47.98947266 36.11117187 47.98947266 35.140625 47.27734375 C34.37234375 46.77332031 33.6040625 46.26929688 32.8125 45.75 C31.85358353 45.06982819 30.89466705 44.38965637 29.9066925 43.68887329 C24.84542183 40.83634451 19.65330096 41.17511459 13.97729492 41.20068359 C12.21495262 41.1853508 12.21495262 41.1853508 10.41700745 41.16970825 C6.54211923 41.14196163 2.66794437 41.14382647 -1.20703125 41.1484375 C-3.22517474 41.14381499 -5.24330081 41.13680707 -7.26143664 41.12962401 C-13.60445782 41.10747407 -19.94724211 41.10653494 -26.2902832 41.11865234 C-32.81220293 41.13072092 -39.33325851 41.10613074 -45.85503083 41.06351221 C-51.4731717 41.02816227 -57.09103902 41.01629607 -62.70928687 41.02278769 C-66.0566498 41.02639642 -69.40290726 41.01865162 -72.75025368 40.99335861 C-76.48887538 40.96857784 -80.22551932 40.98224128 -83.96411133 41.00537109 C-85.05795135 40.99008362 -86.15179138 40.97479614 -87.27877808 40.95904541 C-97.62061951 41.09988004 -106.21776213 46.14083664 -113.1875 53.75 Z M-81.1875 90.75 C-83.48399012 94.82105067 -83.1875 96.73524348 -83.1875 101.75 C-51.5075 101.75 -19.8275 101.75 12.8125 101.75 C12.04363517 92.72219214 12.04363517 92.72219214 6.8125 86.75 C3.78993957 85.23871979 0.65404367 85.576448 -2.66308594 85.55712891 C-3.43402588 85.54895142 -4.20496582 85.54077393 -4.99926758 85.53234863 C-7.55679546 85.50748775 -10.11426776 85.49097575 -12.671875 85.4765625 C-13.54515694 85.47123882 -14.41843887 85.46591515 -15.3181839 85.46043015 C-19.94160586 85.43369388 -24.56500079 85.41432166 -29.18847656 85.39990234 C-33.96137606 85.38326496 -38.73358366 85.33849657 -43.50622177 85.2875309 C-47.1780068 85.25385158 -50.84962786 85.24232412 -54.52155304 85.23667526 C-56.28061452 85.22996326 -58.03966523 85.21474241 -59.79857635 85.19078445 C-62.26440013 85.15911769 -64.7283617 85.15909781 -67.19433594 85.16650391 C-67.91768127 85.15009857 -68.64102661 85.13369324 -69.3862915 85.11679077 C-75.06447465 85.18640692 -77.34795579 86.86664647 -81.1875 90.75 Z M-114.1875 107.75 C-114.1875 110.72 -114.1875 113.69 -114.1875 116.75 C-112.6654041 118.2720959 -111.30539918 117.87959521 -109.1875 117.8828125 C-108.383125 117.88410156 -107.57875 117.88539063 -106.75 117.88671875 C-105.4815625 117.88091797 -105.4815625 117.88091797 -104.1875 117.875 C-103.341875 117.87886719 -102.49625 117.88273437 -101.625 117.88671875 C-100.820625 117.88542969 -100.01625 117.88414062 -99.1875 117.8828125 C-98.07375 117.88112061 -98.07375 117.88112061 -96.9375 117.87939453 C-95.15924189 117.93942216 -95.15924189 117.93942216 -94.1875 116.75 C-94.1875 114.11 -94.1875 111.47 -94.1875 108.75 C-100.7875 108.42 -107.3875 108.09 -114.1875 107.75 Z M38.55859375 107.96875 C37.70458984 108.01386719 36.85058594 108.05898437 35.97070312 108.10546875 C35.07287109 108.15316406 34.17503906 108.20085937 33.25 108.25 C32.34830078 108.29769531 31.44660156 108.34539062 30.51757812 108.39453125 C28.28253961 108.51278726 26.04751431 108.63128756 23.8125 108.75 C23.791875 110.049375 23.77125 111.34875 23.75 112.6875 C23.73839844 113.41839844 23.72679687 114.14929688 23.71484375 114.90234375 C23.60688816 116.76732141 23.60688816 116.76732141 24.8125 117.75 C26.14293625 117.8483721 27.47843344 117.88078592 28.8125 117.8828125 C29.616875 117.88410156 30.42125 117.88539063 31.25 117.88671875 C32.5184375 117.88091797 32.5184375 117.88091797 33.8125 117.875 C34.658125 117.87886719 35.50375 117.88273437 36.375 117.88671875 C37.179375 117.88542969 37.98375 117.88414062 38.8125 117.8828125 C39.92625 117.88112061 39.92625 117.88112061 41.0625 117.87939453 C42.84075811 117.93942216 42.84075811 117.93942216 43.8125 116.75 C43.88429964 115.23071962 43.89642007 113.70832518 43.875 112.1875 C43.86597656 111.36121094 43.85695312 110.53492188 43.84765625 109.68359375 C43.83605469 109.04550781 43.82445312 108.40742188 43.8125 107.75 C42.05892812 107.75 40.30936589 107.87599386 38.55859375 107.96875 Z " fill="#000000" transform="translate(135.1875,38.25)"/>
<path d="M0 0 C15.75309639 5.50309639 15.75309639 5.50309639 21.0078125 10.7578125 C21.47113296 16.08599783 21.47113296 16.08599783 19.7578125 18.5703125 C13.9015216 22.54422418 4.80776905 20.89503859 -1.9921875 20.7578125 C-3.17296875 20.74105469 -4.35375 20.72429687 -5.5703125 20.70703125 C-13.24653358 20.37615965 -13.24653358 20.37615965 -16.5546875 17.6328125 C-17.0290625 16.6840625 -17.5034375 15.7353125 -17.9921875 14.7578125 C-18.889375 13.05625 -18.889375 13.05625 -19.8046875 11.3203125 C-21.10326697 7.42457408 -21.36238352 5.6114888 -19.9921875 1.7578125 C-14.90661859 -4.85342709 -6.91565202 -2.25474614 0 0 Z M-12.9921875 4.7578125 C-12.54514764 9.23664946 -12.54514764 9.23664946 -9.9921875 12.7578125 C-7.76560596 13.12785544 -7.76560596 13.12785544 -5.203125 13.171875 C-3.79160156 13.22988281 -3.79160156 13.22988281 -2.3515625 13.2890625 C-1.36671875 13.32 -0.381875 13.3509375 0.6328125 13.3828125 C2.12167969 13.44082031 2.12167969 13.44082031 3.640625 13.5 C6.09616635 13.5944439 8.5516966 13.68001125 11.0078125 13.7578125 C8.09546241 10.60040677 5.32788638 9.55646495 1.2578125 8.1328125 C0.06671875 7.70742187 -1.124375 7.28203125 -2.3515625 6.84375 C-5.96623628 5.76555331 -9.25867751 5.18860211 -12.9921875 4.7578125 Z " fill="#000000" transform="translate(46.9921875,91.2421875)"/>
<path d="M0 0 C2.49960847 2.64244324 2.84961574 3.75171969 3.1875 7.3125 C2.515625 9.8828125 2.515625 9.8828125 1.4375 12.4375 C1.09203125 13.28570312 0.7465625 14.13390625 0.390625 15.0078125 C-0.85031545 17.38493868 -1.62185408 18.76931165 -3.8125 20.3125 C-8.43423788 21.1284672 -13.1262265 21.16025558 -17.8125 21.3125 C-18.98941406 21.35375 -20.16632813 21.395 -21.37890625 21.4375 C-27.21491024 21.54569938 -32.368188 21.53971854 -37.8125 19.3125 C-39.24985246 16.43779507 -39.19422649 14.49355412 -38.8125 11.3125 C-35.0496509 7.67940431 -30.80530196 5.70778873 -26.0625 3.6875 C-25.3523877 3.38191162 -24.64227539 3.07632324 -23.91064453 2.76147461 C-7.14258823 -4.28555294 -7.14258823 -4.28555294 0 0 Z M-28.8125 13.3125 C-28.8125 13.6425 -28.8125 13.9725 -28.8125 14.3125 C-25.37376184 14.26070236 -21.93755092 14.16564895 -18.5 14.0625 C-17.52353516 14.04832031 -16.54707031 14.03414062 -15.54101562 14.01953125 C-14.60322266 13.98730469 -13.66542969 13.95507812 -12.69921875 13.921875 C-11.83514404 13.90092773 -10.97106934 13.87998047 -10.08081055 13.85839844 C-7.67703104 13.48703361 -7.67703104 13.48703361 -6.00708008 11.52441406 C-4.49570398 9.1448924 -4.49570398 9.1448924 -4.8125 5.3125 C-13.30409397 5.3125 -21.56484572 9.25573776 -28.8125 13.3125 Z " fill="#000000" transform="translate(170.8125,90.6875)"/>
</svg>
