<?xml version="1.0" encoding="UTF-8"?>
<svg version="1.1" xmlns="http://www.w3.org/2000/svg" width="512" height="512">
<path d="M0 0 C1.07824541 -0.00382555 2.15649082 -0.00765109 3.26741034 -0.01159257 C6.88084287 -0.0219123 10.49411619 -0.01793231 14.1075592 -0.01396179 C16.69804023 -0.01830881 19.28851998 -0.02349192 21.8789978 -0.02944946 C28.18516361 -0.04219154 34.49128683 -0.04399079 40.79746335 -0.0416492 C45.9236002 -0.03986542 51.04972414 -0.04161696 56.17585945 -0.04587364 C56.90572082 -0.04646883 57.63558219 -0.04706402 58.38756057 -0.04767724 C59.87031924 -0.04888901 61.35307792 -0.05010314 62.8358366 -0.05131962 C76.73751391 -0.06219316 90.63916696 -0.06003348 104.54084564 -0.05393478 C117.25542336 -0.04876513 129.96992447 -0.06002263 142.68448704 -0.07903299 C155.74427136 -0.09840964 168.80401944 -0.10666774 181.86381823 -0.10290974 C189.19412893 -0.10099752 196.52437442 -0.10348739 203.85467339 -0.11762428 C210.74688148 -0.13078195 217.63893367 -0.12828043 224.53114128 -0.11521339 C227.06153413 -0.11284306 229.59193772 -0.11559856 232.12231827 -0.12383652 C235.57480744 -0.1342666 239.0267777 -0.12623279 242.47924805 -0.11352539 C243.48197579 -0.12089968 244.48470353 -0.12827396 245.51781696 -0.13587171 C251.98524155 -0.08574793 257.09987954 0.57725505 262.22889709 4.87397766 C262.68651428 5.43471985 263.14413147 5.99546204 263.61561584 6.57319641 C264.32137756 7.40270813 264.32137756 7.40270813 265.04139709 8.24897766 C267.98814909 12.94735933 268.55355334 17.55457362 268.55708313 23.00933838 C268.56020311 23.66289434 268.56332309 24.31645031 268.56653762 24.989811 C268.57447492 27.16605572 268.56821082 29.34201828 268.56190491 31.51826477 C268.5646167 33.08412844 268.56817869 34.64999084 268.57252502 36.21585083 C268.58162968 40.45966376 268.5781125 44.70337926 268.57176685 48.94719386 C268.56669602 53.39353999 268.5714014 57.8398779 268.57453918 62.28622437 C268.57817604 69.75356032 268.57338747 77.2208567 268.56385803 84.68818665 C268.55297801 93.31328218 268.5564969 101.93828313 268.56751084 110.56337637 C268.57659645 117.97586784 268.57786265 125.38833089 268.5726335 132.80082613 C268.5695203 137.22477649 268.56908653 141.64868245 268.57570648 146.07262993 C268.58149769 150.23328881 268.57745062 154.39382617 268.56591797 158.55447197 C268.5632807 160.07862649 268.5640205 161.6027913 268.5684433 163.12694168 C268.57393734 165.2131213 268.56701842 167.2989155 268.55708313 169.3850708 C268.55595205 171.13354514 268.55595205 171.13354514 268.55479813 172.91734219 C268.03625508 179.80568206 266.20218611 184.36162614 261.30311584 189.26069641 C256.86792587 191.92442708 253.60458346 192.6367308 248.45835876 192.64164734 C247.794519 192.64632731 247.13067923 192.65100728 246.4467231 192.65582907 C244.23572395 192.66773762 242.0253494 192.65833872 239.81434631 192.64888 C238.22390889 192.65294749 236.6334743 192.65829036 235.04304504 192.66481018 C230.73328114 192.67846639 226.4237331 192.67319276 222.11396551 192.66367292 C217.60215015 192.65607019 213.09035309 192.6631234 208.57853699 192.66783142 C201.0044371 192.67328606 193.43042505 192.66610384 185.8563385 192.65180969 C177.09822337 192.63547194 168.34031764 192.64078099 159.58220756 192.65728891 C152.06104898 192.67089803 144.53995346 192.67282661 137.01878655 192.6649729 C132.5272841 192.66029474 128.03588013 192.6596757 123.544384 192.66958237 C119.32376282 192.67824183 115.10341207 192.67224894 110.88282013 192.6548996 C109.33321965 192.65092978 107.78359644 192.65207726 106.23400497 192.65868759 C104.1203303 192.66687369 102.00752478 192.6566184 99.89390564 192.64164734 C98.1191602 192.63995072 98.1191602 192.63995072 96.30856133 192.63821983 C92.99553234 192.22205988 91.62214394 191.63107999 89.30311584 189.26069641 C88.30311584 185.88569641 88.30311584 185.88569641 88.30311584 182.26069641 C90.06952757 179.45880195 91.33361406 177.7454473 94.30311584 176.26069641 C96.98841447 176.16756733 99.64756002 176.13491319 102.332901 176.14717102 C103.16224655 176.14702499 103.9915921 176.14687897 104.84606934 176.14672852 C107.5947987 176.1474267 110.34346078 176.1552147 113.09217834 176.16304016 C114.99504052 176.16490468 116.89790317 176.16632842 118.80076599 176.16732788 C123.8149294 176.17115042 128.82906395 176.18097848 133.84321594 176.19203186 C139.85625105 176.2040477 145.8692958 176.20864948 151.88233948 176.21448517 C161.02261835 176.22419036 170.16283388 176.24334877 179.30311584 176.26069641 C179.30311584 163.06069641 179.30311584 149.86069641 179.30311584 136.26069641 C116.93311584 136.26069641 54.56311584 136.26069641 -9.69688416 136.26069641 C-9.36688416 149.46069641 -9.03688416 162.66069641 -8.69688416 176.26069641 C-3.12426697 176.21429016 2.44835022 176.16788391 8.18983459 176.12007141 C11.72175428 176.09963144 15.25360097 176.08037563 18.78553772 176.06538391 C24.39075377 176.04147914 29.99570827 176.01321025 35.60072327 175.9589386 C40.12002235 175.91545381 44.63904094 175.89155363 49.1585331 175.88118744 C50.88212817 175.87380078 52.60570802 175.85937622 54.32918358 175.83777618 C56.74490315 175.80870647 59.15946609 175.80474179 61.57533264 175.80659485 C62.28671387 175.79221375 62.99809509 175.77783264 63.73103333 175.76301575 C67.31568283 175.79273745 69.20586571 176.19781454 72.24679565 178.16407776 C74.30311584 180.26069641 74.30311584 180.26069641 74.93202209 182.26069641 C74.899151 183.25069641 74.899151 183.25069641 74.86561584 184.26069641 C74.86690491 184.92069641 74.86819397 185.58069641 74.86952209 186.26069641 C74.02288862 189.25018839 72.75908469 190.35644505 70.30311584 192.26069641 C67.52277584 192.66060297 65.13645971 192.8183568 62.35682678 192.79414368 C61.55954666 192.80275925 60.76226654 192.81137482 59.94082642 192.82025146 C57.30605044 192.84294581 54.67233567 192.83616397 52.03749084 192.82710266 C50.2014891 192.83233856 48.36549005 192.83861492 46.52949524 192.84588623 C42.67933001 192.85629822 38.82953413 192.85172034 34.97938538 192.83711243 C30.05865146 192.81996631 25.13908978 192.84336361 20.21848679 192.87860203 C16.42474203 192.90063034 12.63127506 192.89912072 8.83748627 192.89083672 C7.02429676 192.89001934 5.21108642 192.89684181 3.39795685 192.91160774 C-14.20676026 193.03294747 -14.20676026 193.03294747 -20.69688416 187.26069641 C-25.32620477 181.56307104 -25.81903562 176.80168012 -25.83732605 169.63903809 C-25.84029717 168.98704211 -25.84326829 168.33504614 -25.84632945 167.66329271 C-25.85497627 165.48635618 -25.85652127 163.3094749 -25.85801697 161.13252258 C-25.86264795 159.5684294 -25.86767299 158.00433734 -25.87306213 156.44024658 C-25.88616023 152.19633962 -25.8926259 147.95244847 -25.89707279 143.70852447 C-25.90000741 141.05524659 -25.90411293 138.401973 -25.90857697 135.74869728 C-25.92224442 127.44172219 -25.93191503 119.13475692 -25.93577886 110.82777137 C-25.94025937 101.24852353 -25.95781012 91.6694184 -25.98677945 82.09021395 C-26.0084134 74.67858152 -26.01848403 67.26698919 -26.01981997 59.85532552 C-26.02086668 55.43184721 -26.02674588 51.00850319 -26.04463959 46.58505821 C-26.06115018 42.42274155 -26.06326134 38.26065971 -26.05450058 34.09832191 C-26.05373183 32.57457982 -26.05805149 31.05082495 -26.06795883 29.52711487 C-26.16726797 13.29615527 -26.16726797 13.29615527 -21.30235291 6.23725891 C-20.83442322 5.79124329 -20.36649353 5.34522766 -19.88438416 4.88569641 C-19.42418884 4.42421204 -18.96399353 3.96272766 -18.48985291 3.48725891 C-12.82942186 -0.38501853 -6.56620249 -0.02469336 0 0 Z M-9.69688416 18.26069641 C-9.69688416 31.13069641 -9.69688416 44.00069641 -9.69688416 57.26069641 C52.67311584 57.26069641 115.04311584 57.26069641 179.30311584 57.26069641 C179.30311584 43.73069641 179.30311584 30.20069641 179.30311584 16.26069641 C154.95588408 16.21559738 130.60868599 16.17873516 106.26142311 16.15707207 C94.95727165 16.14674741 83.65314794 16.13266442 72.34901428 16.1098175 C62.49949449 16.08991997 52.64999478 16.07698864 42.80045545 16.07251942 C37.58234953 16.06990586 32.36430108 16.0637383 27.14621353 16.0492363 C22.23958789 16.03570977 17.33304365 16.03146373 12.42640114 16.03448105 C10.62117254 16.03392867 8.81594136 16.02992198 7.01072884 16.02228546 C4.55467364 16.0124012 2.09892977 16.01470344 -0.35713196 16.02018738 C-1.07891361 16.0143617 -1.80069525 16.00853601 -2.54434907 16.00253379 C-6.5681046 15.91415434 -6.5681046 15.91415434 -9.69688416 18.26069641 Z M195.30311584 16.26069641 C195.30311584 29.79069641 195.30311584 43.32069641 195.30311584 57.26069641 C214.11311584 57.26069641 232.92311584 57.26069641 252.30311584 57.26069641 C252.34436584 50.86694641 252.38561584 44.47319641 252.42811584 37.88569641 C252.44632385 35.8678302 252.46453186 33.84996399 252.48329163 31.77095032 C252.48913135 30.17638923 252.49422814 28.58182516 252.49842834 26.98725891 C252.51377625 25.73948669 252.51377625 25.73948669 252.5294342 24.46650696 C252.53006626 22.3965284 252.42634694 20.32700368 252.30311584 18.26069641 C250.49614688 16.03325046 250.49614688 16.03325046 247.97459412 16.02018738 C246.51565231 16.02684921 246.51565231 16.02684921 245.02723694 16.03364563 C243.3757515 16.03387222 243.3757515 16.03387222 241.69090271 16.03410339 C239.90179977 16.04958725 239.90179977 16.04958725 238.07655334 16.06538391 C236.85860077 16.06821381 235.64064819 16.0710437 234.38578796 16.07395935 C230.48313201 16.08518385 226.58070282 16.11029269 222.67811584 16.13569641 C220.03749415 16.14572327 217.39686887 16.15484963 214.75624084 16.16304016 C208.2717075 16.18343178 201.78766647 16.22257691 195.30311584 16.26069641 Z M-9.69688416 73.26069641 C-9.69688416 88.77069641 -9.69688416 104.28069641 -9.69688416 120.26069641 C52.67311584 120.26069641 115.04311584 120.26069641 179.30311584 120.26069641 C179.30311584 104.75069641 179.30311584 89.24069641 179.30311584 73.26069641 C116.93311584 73.26069641 54.56311584 73.26069641 -9.69688416 73.26069641 Z M195.30311584 73.26069641 C195.30311584 88.77069641 195.30311584 104.28069641 195.30311584 120.26069641 C214.11311584 120.26069641 232.92311584 120.26069641 252.30311584 120.26069641 C252.30311584 104.75069641 252.30311584 89.24069641 252.30311584 73.26069641 C233.49311584 73.26069641 214.68311584 73.26069641 195.30311584 73.26069641 Z M195.30311584 136.26069641 C195.30311584 149.46069641 195.30311584 162.66069641 195.30311584 176.26069641 C213.78311584 176.26069641 232.26311584 176.26069641 251.30311584 176.26069641 C252.94283407 172.98125996 252.42351659 169.35511018 252.40077209 165.75288391 C252.39976501 165.00788635 252.39875793 164.26288879 252.39772034 163.49531555 C252.39248298 160.70876021 252.37852174 157.92222679 252.36561584 155.13569641 C252.34499084 148.90694641 252.32436584 142.67819641 252.30311584 136.26069641 C233.49311584 136.26069641 214.68311584 136.26069641 195.30311584 136.26069641 Z " fill="#000000" transform="translate(134.69688415527344,202.7393035888672)"/>
<path d="M0 0 C1.43201609 -0.00337667 2.86402937 -0.00823633 4.29603577 -0.01449585 C7.27389239 -0.02181081 10.25099204 -0.01132763 13.22875977 0.01220703 C17.04118315 0.04087649 20.85186034 0.0241458 24.66422176 -0.00565529 C27.6111622 -0.02372085 30.55768768 -0.01797723 33.50464058 -0.00501633 C34.9108355 -0.00168956 36.31706849 -0.0057438 37.72321892 -0.01741409 C39.68257791 -0.03012669 41.64207005 -0.00731023 43.60131836 0.01708984 C45.27030434 0.02305679 45.27030434 0.02305679 46.9730072 0.02914429 C49.84765625 0.6640625 49.84765625 0.6640625 52.24195862 2.97793579 C53.84765625 5.6640625 53.84765625 5.6640625 53.78515625 9.2890625 C52.84831546 12.66168936 52.56459941 13.66065856 49.84765625 15.6640625 C47.3835144 16.04260254 47.3835144 16.04260254 44.41748047 16.04882812 C43.30557343 16.05893921 42.19366638 16.06905029 41.04806519 16.07946777 C39.24343307 16.07493591 39.24343307 16.07493591 37.40234375 16.0703125 C36.16275909 16.08114868 34.92317444 16.09198486 33.64602661 16.10314941 C29.67156181 16.13749791 25.69723553 16.1536173 21.72265625 16.1640625 C16.51149692 16.17783733 11.30082827 16.21246918 6.08984375 16.2578125 C4.89890106 16.25479126 3.70795837 16.25177002 2.48092651 16.24865723 C-8.355909 16.28463698 -8.355909 16.28463698 -17.76858521 21.08044434 C-21.98413639 25.90485785 -22.29876336 30.02094717 -22.28377151 36.13796711 C-22.28582415 36.90952946 -22.28787678 37.68109182 -22.28999162 38.47603485 C-22.29568301 41.08269725 -22.29420174 43.68930718 -22.29278564 46.29597473 C-22.29536805 48.17519733 -22.29838086 50.05441938 -22.30178905 51.93364066 C-22.30987686 57.11439933 -22.31164961 62.29514416 -22.31238651 67.4759084 C-22.31423396 73.05680345 -22.3217797 78.63769127 -22.32852173 84.21858215 C-22.34211792 96.42916078 -22.34813169 108.63973612 -22.35253239 120.85032105 C-22.35529247 128.47023415 -22.35952938 136.09014598 -22.36403656 143.71005821 C-22.3762306 164.79491628 -22.38656524 185.8797735 -22.38991165 206.9646349 C-22.39013329 208.32838843 -22.39035507 209.69214196 -22.390577 211.05589549 C-22.39079764 212.42296541 -22.39101813 213.79003534 -22.39123845 215.15710527 C-22.39168101 217.8997401 -22.39212812 220.64237493 -22.39257812 223.38500977 C-22.39268752 224.06502482 -22.39279691 224.74503988 -22.39290961 225.44566145 C-22.39654112 247.50051387 -22.41246454 269.55533344 -22.43576849 291.61017328 C-22.46035454 314.92095577 -22.47407718 338.23171692 -22.47527957 361.54251498 C-22.47619747 374.25237397 -22.48197878 386.96218995 -22.50009918 399.67203712 C-22.51547199 410.49304678 -22.52063731 421.31400013 -22.51236108 432.13501862 C-22.50844465 437.65872704 -22.5094325 443.18232197 -22.52341843 448.70601654 C-22.53609781 453.7597824 -22.53501254 458.8133488 -22.52282771 463.86711415 C-22.52086034 465.69821118 -22.5239968 467.52932205 -22.53267208 469.36039958 C-22.5436998 471.84472198 -22.5363227 474.32833237 -22.52428055 476.81263447 C-22.53187574 477.52759636 -22.53947093 478.24255826 -22.54729629 478.97918567 C-22.48636262 484.78123467 -21.01206039 488.80434586 -16.90234375 492.9140625 C-9.60665463 497.55677376 -1.84373452 496.94918974 6.53659058 496.92475891 C7.93865192 496.92778148 9.34071162 496.9316715 10.74276841 496.93635148 C14.58614107 496.94662662 18.42942039 496.9444509 22.27280068 496.94017088 C26.42150136 496.93770278 30.57017962 496.94671888 34.71887207 496.95420837 C42.84302983 496.96695509 50.96715454 496.9687491 59.09132062 496.96640811 C65.69529501 496.96462475 72.29925938 496.96637499 78.90323257 496.97063255 C79.84330846 496.97122774 80.78338435 496.97182293 81.75194738 496.97243616 C83.66174506 496.97364791 85.57154274 496.97486205 87.48134042 496.97607853 C105.38993607 496.98695398 123.29851288 496.98479156 141.20710959 496.97869369 C157.58678626 496.97352463 173.96640346 496.98477968 190.34606837 497.00379191 C207.16883368 497.02316861 223.99157085 497.03142659 240.81434739 497.02766865 C250.25739443 497.02575634 259.70039086 497.0282471 269.1434288 497.04238319 C277.18246784 497.05429582 285.22142509 497.05570321 293.26046525 497.04359303 C297.36082157 497.03770349 301.4610283 497.03660694 305.56137466 497.04859543 C309.31802062 497.05945123 313.07439204 497.05635461 316.83102514 497.04233374 C318.82725564 497.03843564 320.82349833 497.0492364 322.81970012 497.06063062 C333.86207561 497.09567687 333.86207561 497.09567687 343.46116054 492.24755555 C346.70103029 488.54735569 347.97052705 485.41208891 347.97895813 480.57852173 C347.98296631 479.74862228 347.98697449 478.91872284 347.99110413 478.06367493 C347.99057541 477.15659286 347.99004669 476.2495108 347.98950195 475.31494141 C347.99297638 474.3569313 347.99645081 473.3989212 348.00003052 472.41188049 C348.00738667 470.32969367 348.0127328 468.247499 348.01632118 466.16530228 C348.02348158 462.87033966 348.03914451 459.5755264 348.05766296 456.28060913 C348.1101566 446.91170279 348.1581259 437.54287842 348.17358398 428.17382812 C348.18365661 422.44492797 348.21296203 416.71640362 348.25490379 410.98765182 C348.26722781 408.80360123 348.27233251 406.61949759 348.27010536 404.43541336 C348.26775654 401.38052403 348.28988725 398.32671602 348.31762695 395.27197266 C348.31102554 394.36893906 348.30442413 393.46590546 348.29762268 392.5355072 C348.35968749 388.37613719 348.50890161 386.207523 350.75578308 382.60287476 C353.01399843 380.50989146 353.82200829 380.00110153 356.84765625 380.1015625 C357.50765625 380.10027344 358.16765625 380.09898437 358.84765625 380.09765625 C361.91550367 380.96648023 362.93490078 382.08276074 364.84765625 384.6640625 C365.45696227 387.90823587 365.39380923 391.12177825 365.36523438 394.41455078 C365.37574829 395.8982592 365.37574829 395.8982592 365.38647461 397.41194153 C365.40409704 400.68637067 365.39241096 403.95993682 365.37890625 407.234375 C365.38160122 409.51398891 365.38548368 411.79360169 365.39050293 414.07321167 C365.39640483 418.85653604 365.38781726 423.63956188 365.36914062 428.42285156 C365.34642856 434.53594504 365.35942103 440.64833304 365.38343048 446.76140022 C365.39793587 451.47308593 365.39325937 456.18460657 365.38291931 460.89629745 C365.38026109 463.14881347 365.38348975 465.40134474 365.39283752 467.65384293 C365.40307219 470.81536302 365.38740146 473.97576919 365.36523438 477.13720703 C365.3733313 478.05809616 365.38142822 478.97898529 365.38977051 479.92778015 C365.27737828 488.64294469 362.67855757 496.42221898 356.78515625 502.9765625 C356.11355469 503.75644531 355.44195312 504.53632813 354.75 505.33984375 C345.92369619 512.40801436 337.08233494 513.39489269 326.09046936 513.30570984 C324.62108834 513.31219837 323.15171561 513.32085867 321.68235868 513.33148414 C317.67123024 513.35417416 313.66068593 513.3459592 309.64953864 513.33234489 C305.31335369 513.32305664 300.97728172 513.34260385 296.64112854 513.35832214 C288.15684293 513.38436379 279.67276956 513.38333449 271.18845922 513.37228396 C264.29044413 513.36371356 257.39249027 513.36456576 250.49447441 513.37207985 C249.0198641 513.37366218 249.0198641 513.37366218 247.51546369 513.37527648 C245.51813732 513.37744748 243.52081097 513.37963426 241.52348464 513.38183663 C222.80879429 513.4012514 204.09422284 513.38928301 185.37954222 513.36705068 C169.33570714 513.34880194 153.29210223 513.35970349 137.24829102 513.39135742 C118.60051708 513.428147 99.95288684 513.44513225 81.30507654 513.43194515 C79.31493567 513.4306041 77.32479477 513.42929511 75.33465385 513.42801857 C74.35556401 513.4273879 73.37647416 513.42675724 72.36771493 513.42610746 C65.48174859 513.42308449 58.59589096 513.4343216 51.70994759 513.45126915 C43.31271187 513.4716256 34.91580084 513.47067645 26.51858193 513.44263675 C22.23743466 513.42889448 17.95685359 513.42461383 13.67572784 513.44658661 C9.7504138 513.46646648 5.82616133 513.4582519 1.90091973 513.42839227 C0.48718724 513.42242406 -0.92663288 513.42639151 -2.34029447 513.4417555 C-12.91057701 513.54818919 -21.54922349 511.64881941 -29.62545246 504.46388739 C-39.73120579 494.24379081 -39.73155712 482.53179693 -39.66027832 468.98950195 C-39.66489075 467.08233572 -39.67124596 465.17517305 -39.6791873 463.26801777 C-39.69585664 458.04229302 -39.68764505 452.81686118 -39.67524242 447.5911355 C-39.66618451 441.94960216 -39.68016536 436.30811884 -39.69116211 430.66659546 C-39.70894394 419.62078068 -39.7051088 408.57507466 -39.69351155 397.52925563 C-39.6844762 388.55169072 -39.68325367 379.57415628 -39.68760681 370.59658813 C-39.68821974 369.31861337 -39.68883268 368.04063861 -39.68946418 366.72393733 C-39.69074309 364.12771598 -39.69203994 361.53149463 -39.69335455 358.93527329 C-39.70443428 335.28716975 -39.69294625 311.63913622 -39.67198416 287.991044 C-39.65300237 266.41294289 -39.65470091 244.83493622 -39.67382812 223.25683594 C-39.69525656 199.00169522 -39.70366074 174.74662133 -39.69137907 150.49146938 C-39.69010488 147.90482522 -39.6888474 145.31818105 -39.68760681 142.73153687 C-39.68698971 141.45887492 -39.68637261 140.18621297 -39.68573681 138.87498552 C-39.68228383 129.90871971 -39.68811114 120.94248742 -39.69752502 111.97622681 C-39.70874603 101.04860876 -39.7057027 90.12110564 -39.68440205 79.19350076 C-39.67389313 73.61859452 -39.6697673 68.04387987 -39.68299866 62.46897507 C-39.69493137 57.36401671 -39.6883452 52.25942724 -39.66708845 47.15450227 C-39.66262616 45.30941709 -39.66488025 43.46430065 -39.6745916 41.61923563 C-39.73178223 29.84923179 -39.36168933 19.5510917 -31.08984375 10.3515625 C-30.41824219 9.57167969 -29.74664062 8.79179687 -29.0546875 7.98828125 C-20.12371227 0.83628897 -11.12526654 -0.09341921 0 0 Z " fill="#000000" transform="translate(93.15234375,-0.6640625)"/>
<path d="M0 0 C1.09342649 -0.00765109 2.18685299 -0.01530219 3.31341362 -0.02318513 C6.99063014 -0.04388217 10.66722422 -0.03585409 14.34448242 -0.02792358 C16.97582072 -0.03661486 19.60715395 -0.04698016 22.23847961 -0.05889893 C28.65357725 -0.08442088 35.06850756 -0.08797642 41.48364741 -0.0832984 C46.70133647 -0.07973274 51.91897473 -0.08322986 57.13665771 -0.09174728 C57.87922325 -0.09293766 58.62178879 -0.09412804 59.38685632 -0.09535449 C60.89545441 -0.09777803 62.4040525 -0.1002063 63.91265059 -0.10263924 C78.06867685 -0.12440373 92.2246079 -0.12006052 106.38063955 -0.10786955 C119.31515171 -0.09754538 132.24936196 -0.12000185 145.18381441 -0.15806599 C158.47297335 -0.19687294 171.76198969 -0.21332506 185.05120564 -0.20581949 C192.50865413 -0.20200097 199.96584613 -0.20691491 207.42324829 -0.23524857 C213.77668863 -0.2591434 220.12971489 -0.26181281 226.48316127 -0.23766823 C229.7213621 -0.22593295 232.95865521 -0.22685763 236.19683266 -0.24767303 C262.73755001 -0.40592839 262.73755001 -0.40592839 272.81716919 8.72160912 C280.51157715 16.33983321 282.82919786 24.97118756 282.92242479 35.58772409 C282.91350191 36.86322582 282.90457902 38.13872756 282.89538574 39.45288086 C282.900002 40.84460018 282.90635976 42.23631462 282.91429472 43.62801898 C282.93091072 47.42876628 282.92277741 51.22910911 282.91034985 55.0298574 C282.90127029 59.13752647 282.91528309 63.24512776 282.92626953 67.3527832 C282.94402559 75.38866419 282.94022863 83.42439547 282.92861897 91.46028225 C282.9195772 97.98938913 282.91836385 104.51845412 282.92271423 111.04756546 C282.92332717 111.97757705 282.9239401 112.90758863 282.9245716 113.86578239 C282.92585052 115.75513613 282.92714737 117.64448987 282.92846197 119.53384359 C282.93985824 137.23440191 282.92676705 154.93487724 282.9052605 172.63542195 C282.88737269 187.82841072 282.89050932 203.02127732 282.90893555 218.21426392 C282.93032861 235.86175283 282.93877832 253.5091692 282.92648649 271.15666926 C282.92521229 273.03715109 282.92395481 274.91763293 282.92271423 276.79811478 C282.92178858 278.18595726 282.92178858 278.18595726 282.92084423 279.60183697 C282.91738795 286.12734073 282.92322527 292.6527985 282.93263245 299.17829514 C282.94383565 307.1241119 282.94084711 315.06977055 282.91950947 323.01556914 C282.90897907 327.07080633 282.90491111 331.12577963 282.91810608 335.18101501 C282.92999389 338.89049172 282.92352804 342.59945898 282.90219587 346.30888923 C282.89558589 348.29176726 282.90869769 350.27468045 282.92242479 352.25752199 C282.90677831 354.01584917 282.90677831 354.01584917 282.89081573 355.8096981 C282.89016633 356.82344674 282.88951692 357.83719538 282.88884783 358.88166368 C282.25266054 362.23103209 280.99713796 363.40117293 278.38745117 365.52139282 C275.74688044 366.71390864 274.64350792 366.59009097 271.82495117 365.83389282 C269.0371926 364.33279205 268.01613068 363.21975641 266.38745117 360.52139282 C266.01189566 357.90270913 266.01189566 357.90270913 266.01107025 354.86099434 C266.00346381 353.70024301 265.99585736 352.53949167 265.98802042 351.34356606 C265.99491436 350.06751531 266.00180829 348.79146456 266.00891113 347.47674561 C266.00562102 346.10813212 266.00100786 344.73952129 265.99518347 343.37091625 C265.98294775 339.60613995 265.9893488 335.84158817 265.99868846 332.07681203 C266.00547389 328.01808981 265.99495786 323.95940948 265.98640442 319.9006958 C265.97382662 312.86605216 265.9718688 305.83146998 265.97676086 298.79681778 C265.98356149 288.61931819 265.97106462 278.44191148 265.95325369 268.26442848 C265.92458998 251.7441303 265.90708718 235.22384213 265.89868164 218.70352173 C265.89817446 217.71447349 265.89766728 216.72542526 265.89714473 215.70640586 C265.89361773 208.68640164 265.89048849 201.66639727 265.88745117 194.64639282 C265.8839827 186.63093044 265.88033351 178.61546819 265.8762207 170.6000061 C265.87546678 169.11914728 265.87546678 169.11914728 265.87469763 167.60837211 C265.86595659 151.15295673 265.84552595 134.69757579 265.81673861 118.24218357 C265.79954677 108.0893579 265.7929791 97.93662961 265.80004466 87.78379129 C265.80422058 80.82782815 265.79788521 73.87192644 265.78324592 66.91597761 C265.77517907 62.90107716 265.7720917 58.88632899 265.78206825 54.87142944 C265.79112454 51.19623267 265.78644901 47.52131915 265.77085382 43.84614669 C265.76615039 41.88633162 265.77625689 39.92649831 265.78688192 37.9667064 C265.73965224 30.72702355 265.48490883 25.61885049 260.13745117 20.27139282 C253.65422264 16.14570194 247.11974545 16.23480319 239.66401672 16.26983643 C238.59505085 16.26686629 237.52608497 16.26389615 236.42472619 16.26083601 C232.84885121 16.25320757 229.27314105 16.25968528 225.69726562 16.26602173 C223.13132618 16.26327139 220.56538759 16.25959124 217.99945068 16.25505066 C212.47744248 16.24694255 206.9554786 16.24460621 201.43346596 16.24699783 C193.44526981 16.25009837 185.45714436 16.23844718 177.46896603 16.22244804 C164.50194071 16.19650575 151.53491533 16.17647533 138.56787109 16.16299438 C137.79232839 16.16218401 137.01678569 16.16137364 136.21774169 16.16053872 C125.20142898 16.14930697 114.18512132 16.14403343 103.16880365 16.14115159 C102.00412524 16.14084561 102.00412524 16.14084561 100.81591797 16.14053345 C100.0404128 16.14033351 99.26490763 16.14013358 98.46590231 16.13992758 C85.54280109 16.13619719 72.6197768 16.11713246 59.6967141 16.08543909 C51.72632665 16.06650977 43.7561363 16.06057191 35.78573253 16.07125627 C29.68460628 16.07831043 23.583706 16.06482793 17.48260498 16.04363823 C14.97675773 16.03829692 12.47088523 16.03984585 9.96504784 16.04867363 C6.55300866 16.05972761 3.14191544 16.04644074 -0.27006531 16.0269165 C-1.26917661 16.03604116 -2.26828791 16.04516582 -3.29767531 16.05456698 C-9.95080317 15.98011988 -9.95080317 15.98011988 -13.22770405 13.70854759 C-15.27445869 10.47600541 -15.14689158 8.26179208 -14.61254883 4.52139282 C-11.16897328 -0.98182798 -5.81954754 -0.04283862 0 0 Z " fill="#000000" transform="translate(175.612548828125,-0.521392822265625)"/>
<path d="M0 0 C5.51702218 4.78141922 9.95162027 10.26009243 13.8125 16.4375 C16.14890762 16.41979285 16.14890762 16.41979285 18.8125 15.4375 C20.61781578 13.35645271 22.15018309 11.38677137 23.6875 9.125 C27.65982012 3.28297219 31.34608599 -0.32968889 38.40234375 -2.27734375 C45.12286663 -2.91473111 50.23178249 -2.37537787 55.65234375 1.8828125 C58.98052928 5.01436562 61.391418 8.28407857 63.75 12.1875 C66.76542294 16.98291653 69.48681935 17.8397958 74.8125 19.4375 C77.29288907 23.1580836 77.27587203 25.03546571 76.8125 29.4375 C75.375 31.875 75.375 31.875 72.8125 33.4375 C67.43725578 34.46185892 62.55272716 33.62330016 57.79296875 30.97265625 C53.71190395 27.80922732 50.84337418 23.56993139 47.8125 19.4375 C46.48596538 17.76541703 45.15450508 16.09719212 43.8125 14.4375 C40.75955718 14.74211735 39.91054837 15.31883115 37.91796875 17.73046875 C37.28503906 18.68566406 36.65210938 19.64085937 36 20.625 C32.16950236 26.12062068 28.39069545 31.24476818 21.8125 33.4375 C14.7650612 34.1319972 8.49431605 34.0038675 2.8125 29.4375 C-0.87318681 25.42720224 -4.03806935 21.06887697 -7.171875 16.62109375 C-7.83703125 15.90050781 -8.5021875 15.17992187 -9.1875 14.4375 C-10.5075 14.4375 -11.8275 14.4375 -13.1875 14.4375 C-13.45046875 15.00597656 -13.7134375 15.57445312 -13.984375 16.16015625 C-17.65940652 23.11646592 -23.51782578 30.88094193 -31.1875 33.4375 C-35.23132202 33.82475367 -38.91481823 33.97838975 -42.6875 32.375 C-44.98356866 29.40924465 -45.1875 27.15059209 -45.1875 23.4375 C-43.19256442 19.78011809 -41.76047304 18.64968744 -37.84375 17.19921875 C-33.72681954 15.50458027 -31.61394376 12.61944527 -29.1875 9 C-25.31629594 3.26416599 -21.73453968 0.06144274 -15.0546875 -2.32421875 C-9.79540224 -2.99538277 -4.74382127 -2.32540259 0 0 Z " fill="#000000" transform="translate(326.1875,435.5625)"/>
<path d="M0 0 C5.37559466 3.33434652 8.39094604 8.58524631 11.8125 13.75 C12.40998047 14.63816406 13.00746094 15.52632812 13.62304688 16.44140625 C15.08915549 18.62297588 16.54781335 20.80914904 18 23 C17.94779297 21.37191406 17.94779297 21.37191406 17.89453125 19.7109375 C17.86637612 18.26564058 17.83907781 16.82032679 17.8125 15.375 C17.78736328 14.66214844 17.76222656 13.94929688 17.73632812 13.21484375 C17.67008688 8.40131308 18.34556326 5.17768494 21 1 C24.09173752 -0.54586876 26.59429552 -0.29359521 30 0 C32.5333714 1.97377201 33.80949594 3.24348205 34.60058594 6.38500977 C34.66681152 7.74323853 34.66681152 7.74323853 34.734375 9.12890625 C34.81655273 10.72049561 34.81655273 10.72049561 34.90039062 12.34423828 C34.93326172 13.55063965 34.96613281 14.75704102 35 16 C35.02888306 17.00797638 35.02888306 17.00797638 35.05834961 18.03631592 C35.17845582 22.55254138 35.22888447 27.06649528 35.24023438 31.58422852 C35.25008583 33.95818283 35.2812888 36.33132032 35.3125 38.70507812 C35.31901929 40.22916162 35.32427395 41.75325117 35.328125 43.27734375 C35.3404718 43.97947495 35.3528186 44.68160614 35.36553955 45.40501404 C35.34566359 49.78683001 34.65190359 52.49813773 32 56 C29.50085312 57.89590453 28.22036696 58.00468866 25.0625 57.9375 C18.40942214 55.90084351 14.88602904 49.21307276 11.1875 43.6875 C10.68541016 42.94693359 10.18332031 42.20636719 9.66601562 41.44335938 C8.43907229 39.63215731 7.21724734 37.81772622 6 36 C5.97421875 37.25296875 5.9484375 38.5059375 5.921875 39.796875 C5.86558831 41.44795123 5.8082411 43.09899155 5.75 44.75 C5.72873047 45.9875 5.72873047 45.9875 5.70703125 47.25 C5.46077816 53.35707663 5.46077816 53.35707663 3.171875 56.55078125 C-0.01115946 58.67471252 -2.26119678 58.4673504 -6 58 C-9.1850357 56.23984869 -9.83296972 55.50109084 -11 52 C-11.10106984 50.50782531 -11.14829525 49.01165186 -11.16113281 47.51611328 C-11.17074036 46.61152374 -11.1803479 45.7069342 -11.19024658 44.77493286 C-11.19449646 43.79990814 -11.19874634 42.82488342 -11.203125 41.8203125 C-11.20882507 40.81539764 -11.21452515 39.81048279 -11.22039795 38.77511597 C-11.22984577 36.64842786 -11.23638107 34.52172513 -11.24023438 32.39501953 C-11.24994148 29.14459667 -11.28096785 25.89480574 -11.3125 22.64453125 C-11.31903006 20.57812875 -11.32428052 18.51172174 -11.328125 16.4453125 C-11.3404718 15.47433624 -11.3528186 14.50335999 -11.36553955 13.50296021 C-11.3492297 8.55259255 -11.33325632 4.96724451 -8 1 C-5.14675563 -0.42662219 -3.16545451 -0.31033868 0 0 Z " fill="#000000" transform="translate(138,40)"/>
<path d="M0 0 C6.37507753 4.99399488 10.43027504 10.76758347 12.75 18.5 C13.71788361 28.17883607 12.23499211 36.24838819 6 44 C-0.82472833 51.06792577 -6.60176609 54.0715192 -16.4375 54.4375 C-25.37406415 54.1898354 -31.70567457 51.1199986 -38.20703125 45.046875 C-43.42904901 39.08535582 -46.23031491 31.92554256 -46 24 C-45.1887968 14.87752188 -41.83160219 8.42695157 -35.1875 2.1875 C-25.1442801 -5.9889504 -11.17043844 -6.7977369 0 0 Z M-27.640625 17.8359375 C-30.04290874 21.66026277 -29.74129348 25.64833274 -29 30 C-27.35385601 33.20083553 -25.02540648 35.24803524 -22.125 37.375 C-17.42328643 38.75785693 -14.06928681 38.57576982 -9.75 36.25 C-5.95417074 33.14432152 -4.36699066 31.41553541 -3.125 26.625 C-2.94505474 21.40658743 -4.64212963 18.57003761 -8 14.6875 C-14.64795407 9.07828876 -22.37365906 11.9419518 -27.640625 17.8359375 Z " fill="#000000" transform="translate(269,44)"/>
<path d="M0 0 C2.6875 2.3125 2.6875 2.3125 4 5 C3.94021398 8.46758942 3.60965977 10.88826749 1.9375 13.9375 C-1.22223605 15.67025848 -4.51994243 15.43323166 -8 15 C-9.34136367 14.34964186 -10.67532254 13.6837045 -12 13 C-17.19973777 12.5185428 -20.65470065 13.0372959 -25 16 C-27.60344608 19.52724953 -28.23531253 22.27695969 -28 26.5625 C-27.47495979 29.80571713 -26.88419846 31.17370231 -25 34 C-21.0319676 36.64535493 -17.76657089 37.59083123 -13 37 C-10.81553153 35.86133067 -8.91652325 34.52983707 -6.91796875 33.09375 C-5 32 -5 32 -1.1875 32 C3.63636364 33.51336898 3.63636364 33.51336898 5 36 C5.39868574 39.08981452 5.61519474 41.04010079 5 44 C1.27363965 48.82234868 -3.92342815 52.8503783 -10 54 C-19.80957351 54.87739587 -27.92259529 53.41697368 -35.8125 47.3125 C-41.21023202 42.29758585 -44.58395094 35.65156489 -45.23828125 28.3359375 C-45.48030951 18.68028387 -43.47115325 10.73994358 -36.77734375 3.53515625 C-26.30800517 -5.50759114 -12.04311223 -6.94009858 0 0 Z " fill="#000000" transform="translate(365,44)"/>
<path d="M0 0 C0.91899582 -0.00817749 1.83799164 -0.01635498 2.78483582 -0.02478027 C5.82871855 -0.04961173 8.87255479 -0.0661426 11.91650391 -0.08056641 C12.95560535 -0.08589008 13.9947068 -0.09121376 15.06529617 -0.09669876 C20.56289177 -0.12341772 26.06046473 -0.14279858 31.55810547 -0.15722656 C37.24015606 -0.17389155 42.9216286 -0.21868869 48.60346031 -0.26959801 C52.97004883 -0.30322195 57.33649912 -0.31479854 61.70320511 -0.32045364 C63.79801488 -0.32717712 65.89281521 -0.34242749 67.98749924 -0.36634445 C70.91793029 -0.39790086 73.84678798 -0.39804725 76.77734375 -0.390625 C77.6429744 -0.40703033 78.50860504 -0.42343567 79.40046692 -0.44033813 C83.74063392 -0.39531458 85.49839764 -0.20234989 89.06045532 2.50668335 C91.01806641 5.19287109 91.01806641 5.19287109 91.58056641 8.75537109 C91.01806641 12.19287109 91.01806641 12.19287109 89.56285095 14.37437439 C85.75056513 17.09862435 82.31922957 16.76010049 77.73901367 16.72631836 C76.33104019 16.73924171 76.33104019 16.73924171 74.8946228 16.75242615 C71.79095912 16.77513391 68.68819489 16.76833804 65.58447266 16.75927734 C63.42740103 16.764511 61.2703317 16.77078653 59.11326599 16.77806091 C54.59143306 16.78847419 50.06991463 16.7838905 45.5480957 16.76928711 C39.7527507 16.75210321 33.95839748 16.77558546 28.16316319 16.81077671 C23.70815965 16.83273598 19.25339393 16.83131265 14.7983532 16.8230114 C12.66171112 16.82219098 10.52505175 16.82907163 8.38846016 16.84378242 C5.40052453 16.8611995 2.41437729 16.8467086 -0.57348633 16.82397461 C-1.45624741 16.83566681 -2.33900848 16.84735901 -3.2485199 16.85940552 C-7.64645839 16.79131096 -9.44344498 16.60650649 -13.03871155 13.84483337 C-14.98193359 11.19287109 -14.98193359 11.19287109 -15.48193359 8.13037109 C-14.93448551 4.91411362 -14.27436449 3.48530199 -11.98193359 1.19287109 C-7.99582568 -0.13583154 -4.15750105 0.02036469 0 0 Z " fill="#000000" transform="translate(321.98193359375,127.80712890625)"/>
<path d="M0 0 C0.99902344 -0.00515625 1.99804688 -0.0103125 3.02734375 -0.015625 C4.05988281 -0.00015625 5.09242188 0.0153125 6.15625 0.03125 C7.70505859 0.00804687 7.70505859 0.00804687 9.28515625 -0.015625 C13.82209603 0.00779146 16.82910241 0.06788477 20.8359375 2.3125 C23.2899591 5.30366795 23.41024499 6.8850282 23.1171875 10.625 C22.65625 12.53125 22.65625 12.53125 20.90625 15.03125 C15.92777376 17.32900826 11.05155594 16.84102833 5.65625 16.53125 C5.65625 18.18125 5.65625 19.83125 5.65625 21.53125 C6.39230469 21.47324219 7.12835938 21.41523437 7.88671875 21.35546875 C15.8409319 20.9877046 15.8409319 20.9877046 19.84375 23.65625 C22.00288968 27.08109225 22.48255866 28.56496841 21.65625 32.53125 C19.84375 35.40625 19.84375 35.40625 16.65625 37.53125 C12.9510199 37.94236401 9.36743727 37.82372535 5.65625 37.53125 C5.65625 39.18125 5.65625 40.83125 5.65625 42.53125 C6.54828125 42.48484375 7.4403125 42.4384375 8.359375 42.390625 C9.52984375 42.35453125 10.7003125 42.3184375 11.90625 42.28125 C13.06640625 42.23484375 14.2265625 42.1884375 15.421875 42.140625 C18.65625 42.53125 18.65625 42.53125 21.04296875 44.296875 C22.73205865 46.63624406 23.22430216 47.68854607 23.21875 50.53125 C23.24066406 51.19125 23.26257813 51.85125 23.28515625 52.53125 C22.21843587 55.92355332 20.75673378 56.79650079 17.65625 58.53125 C13.81270725 59.11704774 10.03721336 59.08939177 6.15625 59.03125 C5.12371094 59.04671875 4.09117187 59.0621875 3.02734375 59.078125 C1.52880859 59.07039063 1.52880859 59.07039063 0 59.0625 C-1.35834961 59.05573242 -1.35834961 59.05573242 -2.74414062 59.04882812 C-6.4722547 58.30656649 -7.8929259 57.49110392 -10.34375 54.53125 C-11.09948894 50.8067585 -11.04397955 47.13333719 -11.0078125 43.34375 C-11.01259613 42.24909424 -11.01737976 41.15443848 -11.02230835 40.02661133 C-11.02570921 37.71336428 -11.01649392 35.4000693 -10.99560547 33.08691406 C-10.96884504 29.54383289 -10.9953496 26.00392 -11.02734375 22.4609375 C-11.02403969 20.21353467 -11.01763354 17.9661338 -11.0078125 15.71875 C-11.01793365 14.65825439 -11.02805481 13.59775879 -11.03848267 12.50512695 C-10.92240909 5.23009509 -10.92240909 5.23009509 -8.13623047 1.86523438 C-5.16569333 0.44619128 -3.27588444 0.01632113 0 0 Z " fill="#000000" transform="translate(390.34375,39.46875)"/>
<path d="M0 0 C4.84536548 3.38603296 5.9994516 8.88565856 7.75 14.25 C8.06582031 15.18585937 8.38164062 16.12171875 8.70703125 17.0859375 C9.48198159 19.38730518 10.24584492 21.69175131 11 24 C12.66289102 21.50566346 13.47964358 19.89343629 14.3671875 17.12890625 C14.61339844 16.38962891 14.85960937 15.65035156 15.11328125 14.88867188 C15.6191856 13.34371781 16.1192376 11.79683451 16.61328125 10.24804688 C18.05374269 5.96024845 19.2575437 2.81603293 23 0 C26.73984509 -0.63656938 28.50962644 -0.25584708 31.875 1.5 C34.34273065 4.40321253 34.35797381 5.97752689 34.2515564 9.6986084 C33.79052979 13.91636147 32.45965866 17.82042326 31.11328125 21.828125 C30.66495186 23.19526642 30.66495186 23.19526642 30.20756531 24.59002686 C29.57549624 26.5047335 28.93726982 28.41741741 28.29321289 30.328125 C27.31294673 33.24866904 26.36358123 36.17808166 25.41601562 39.109375 C24.7961149 40.97457222 24.17443064 42.83917784 23.55078125 44.703125 C23.27035477 45.57608215 22.98992828 46.44903931 22.70100403 47.34844971 C21.0259414 52.22408757 19.65086318 55.29143042 15 58 C11.5 58.5625 11.5 58.5625 8 58 C2.85400169 53.99238037 1.23398786 49.31070017 -0.8046875 43.3515625 C-1.13292511 42.42080902 -1.46116272 41.49005554 -1.79934692 40.53109741 C-2.4870037 38.56847501 -3.16735885 36.6032808 -3.84082031 34.63574219 C-4.87178943 31.63434674 -5.93413077 28.64540357 -7 25.65625 C-7.66598087 23.74285413 -8.33010633 21.82881125 -8.9921875 19.9140625 C-9.3097702 19.02530426 -9.62735291 18.13654602 -9.95455933 17.22085571 C-11.71315291 11.99778604 -12.41440911 8.37685392 -11 3 C-7.92160879 -0.67038952 -4.56677188 -0.57084649 0 0 Z " fill="#000000" transform="translate(190,40)"/>
<path d="M0 0 C2.95327544 2.04809195 4.72623178 3.66809276 5.46734619 7.27368164 C5.66321565 10.13152549 5.69281134 12.94802852 5.6640625 15.8125 C5.66884613 16.85897705 5.67362976 17.9054541 5.67855835 18.98364258 C5.68195548 21.19256089 5.67276625 23.40152961 5.65185547 25.61035156 C5.62508896 28.9887721 5.65161143 32.36387014 5.68359375 35.7421875 C5.68028962 37.89063232 5.67388333 40.03907508 5.6640625 42.1875 C5.67418365 43.19594971 5.68430481 44.20439941 5.69473267 45.2434082 C5.61584684 49.97071091 5.55059822 52.26632588 2.64599609 56.13671875 C0 58 0 58 -3 58.625 C-7.20481932 57.74899597 -8.42602755 56.45040032 -11 53 C-11.73582058 49.31177275 -11.67702215 45.68416704 -11.62890625 41.93359375 C-11.63252419 40.3270266 -11.63252419 40.3270266 -11.63621521 38.68800354 C-11.63523722 36.42778819 -11.6218553 34.16754875 -11.59692383 31.9074707 C-11.56258384 28.44595139 -11.57627671 24.98698044 -11.59570312 21.52539062 C-11.58880557 19.32811412 -11.57913401 17.13084421 -11.56640625 14.93359375 C-11.57136612 13.89810898 -11.57632599 12.86262421 -11.58143616 11.79576111 C-11.46453995 4.67572279 -11.46453995 4.67572279 -9.17944336 1.35180664 C-5.90174914 -0.68119357 -3.77502226 -0.59605615 0 0 Z " fill="#000000" transform="translate(304,40)"/>
<path d="M0 0 C3.1850357 1.76015131 3.83296972 2.49890916 5 6 C5.10106984 7.49217469 5.14829525 8.98834814 5.16113281 10.48388672 C5.17074036 11.38847626 5.1803479 12.2930658 5.19024658 13.22506714 C5.19449646 14.20009186 5.19874634 15.17511658 5.203125 16.1796875 C5.20882507 17.18460236 5.21452515 18.18951721 5.22039795 19.22488403 C5.22984577 21.35157214 5.23638107 23.47827487 5.24023438 25.60498047 C5.24994148 28.85540333 5.28096785 32.10519426 5.3125 35.35546875 C5.31903006 37.42187125 5.32428052 39.48827826 5.328125 41.5546875 C5.3404718 42.52566376 5.3528186 43.49664001 5.36553955 44.49703979 C5.3492297 49.44740745 5.33325632 53.03275549 2 57 C-1.09173752 58.54586876 -3.59429552 58.29359521 -7 58 C-9.19335938 56.6796875 -9.19335938 56.6796875 -11 54 C-11.60869483 50.27449911 -11.56001743 46.58031735 -11.53125 42.8125 C-11.5350769 41.71784424 -11.53890381 40.62318848 -11.54284668 39.49536133 C-11.54556736 37.18211955 -11.53819534 34.86884708 -11.52148438 32.55566406 C-11.5000784 29.01297478 -11.52128226 25.47231364 -11.546875 21.9296875 C-11.54423175 19.68228719 -11.53910684 17.43488813 -11.53125 15.1875 C-11.53934692 14.12700439 -11.54744385 13.06650879 -11.55578613 11.97387695 C-11.46270403 4.68135535 -11.46270403 4.68135535 -9.18554688 1.328125 C-5.97395083 -0.62351513 -3.6812156 -0.46015195 0 0 Z " fill="#000000" transform="translate(110,40)"/>
<path d="M0 0 C0.82450653 -0.00960754 1.64901306 -0.01921509 2.49850464 -0.02911377 C3.38603424 -0.03336365 4.27356384 -0.03761353 5.18798828 -0.04199219 C6.10411896 -0.04769226 7.02024963 -0.05339233 7.96414185 -0.05926514 C9.90251512 -0.06871046 11.84090442 -0.07524726 13.77929688 -0.07910156 C16.7400318 -0.0888073 19.70007251 -0.11983505 22.66064453 -0.15136719 C24.544755 -0.15789748 26.42887042 -0.16314785 28.31298828 -0.16699219 C29.19646942 -0.17933899 30.07995056 -0.19168579 30.99020386 -0.20440674 C35.76717104 -0.18715113 39.02470556 0.00941919 42.88330078 3.16113281 C44.42916954 6.25287033 44.17689599 8.75542834 43.88330078 12.16113281 C42.50830078 14.35449219 42.50830078 14.35449219 39.88330078 16.16113281 C36.44826719 16.76358242 33.0508958 16.72134278 29.57080078 16.69238281 C28.5649292 16.69620972 27.55905762 16.70003662 26.52270508 16.70397949 C24.39777627 16.70669932 22.27281402 16.69933322 20.14794922 16.68261719 C16.89491146 16.66120922 13.64408233 16.68241713 10.39111328 16.70800781 C8.32600424 16.70536455 6.26089657 16.7002396 4.19580078 16.69238281 C3.22280029 16.70047974 2.2497998 16.70857666 1.24731445 16.71691895 C-5.4491934 16.62390364 -5.4491934 16.62390364 -8.73388672 14.34667969 C-10.76066747 11.14333553 -10.58039274 8.87068095 -10.11669922 5.16113281 C-7.66222516 0.71970357 -4.85783161 0.04578973 0 0 Z " fill="#000000" transform="translate(369.11669921875,160.8388671875)"/>
</svg>
