<?xml version="1.0" encoding="UTF-8"?>
<svg version="1.1" xmlns="http://www.w3.org/2000/svg" width="200" height="200">
<path d="M0 0 C1.01710052 -0.0033284 2.03420105 -0.0066568 3.0821228 -0.01008606 C5.22515413 -0.0151233 7.36819322 -0.01749538 9.51123047 -0.01733398 C12.74329998 -0.01951095 15.97502236 -0.03767517 19.20703125 -0.05664062 C48.91040647 -0.14160549 48.91040647 -0.14160549 58.1484375 5.16796875 C60.16015625 7.4375 60.16015625 7.4375 61.8359375 9.98046875 C62.41859375 10.86347656 63.00125 11.74648438 63.6015625 12.65625 C68.1484375 20.03918087 68.1484375 20.03918087 68.1484375 23.16796875 C68.76332031 23.22855469 69.37820312 23.28914063 70.01171875 23.3515625 C70.81996094 23.43535156 71.62820312 23.51914063 72.4609375 23.60546875 C73.26144531 23.68667969 74.06195313 23.76789063 74.88671875 23.8515625 C78.19118034 24.31384469 79.75850437 24.66249988 81.8359375 27.35546875 C83.34214092 30.58304752 83.53978508 32.64584055 83.1484375 36.16796875 C82.1584375 37.15796875 82.1584375 37.15796875 81.1484375 38.16796875 C80.1584375 38.16796875 79.1684375 38.16796875 78.1484375 38.16796875 C78.71778015 38.80948883 79.2871228 39.45100891 79.87371826 40.11196899 C85.97728492 47.5930089 87.26948576 52.80071111 86.8515625 62.31640625 C86.82753357 63.53196198 86.80350464 64.7475177 86.77874756 65.99990845 C86.72008566 68.5501023 86.64168966 71.09991202 86.54443359 73.64892578 C86.39807564 77.55262035 86.31717815 81.45365467 86.24609375 85.359375 C86.18089808 87.84515506 86.11201703 90.3308418 86.0390625 92.81640625 C85.99957489 94.56333267 85.99957489 94.56333267 85.95928955 96.34555054 C85.62513099 104.30897332 85.62513099 104.30897332 83.35449219 108.40063477 C80.96661873 110.313629 79.97756922 110.79996581 76.9609375 110.796875 C75.78917969 110.79977539 75.78917969 110.79977539 74.59375 110.80273438 C73.78679687 110.77888672 72.97984375 110.75503906 72.1484375 110.73046875 C70.93800781 110.7469043 70.93800781 110.7469043 69.703125 110.76367188 C65.82315939 110.7156525 63.79677348 110.66333796 60.6484375 108.2578125 C58.09789676 104.70432475 58.05388951 102.51717632 58.1484375 98.16796875 C56.8490625 98.18859375 55.5496875 98.20921875 54.2109375 98.23046875 C52.85678117 98.25196329 51.50087667 98.23945074 50.1484375 98.16796875 C49.8184375 97.83796875 49.4884375 97.50796875 49.1484375 97.16796875 C47.63005977 97.05918733 46.10669405 97.01893278 44.58447266 97.00683594 C43.61321442 96.99722839 42.64195618 96.98762085 41.64126587 96.97772217 C40.58402313 96.97347229 39.5267804 96.96922241 38.4375 96.96484375 C36.81888565 96.95629364 36.81888565 96.95629364 35.16757202 96.9475708 C32.87930283 96.93810412 30.59101991 96.93158023 28.30273438 96.92773438 C24.79533173 96.91802933 21.28851493 96.88702132 17.78125 96.85546875 C15.5625035 96.84893908 13.34375278 96.84368847 11.125 96.83984375 C9.54520859 96.82132355 9.54520859 96.82132355 7.9335022 96.8024292 C6.46715836 96.80693085 6.46715836 96.80693085 4.97119141 96.81152344 C4.11038971 96.80787781 3.24958801 96.80423218 2.36270142 96.80047607 C-0.34575155 97.24998736 -1.00996078 98.21744039 -2.8515625 100.16796875 C-9.00058211 100.82679228 -9.00058211 100.82679228 -11.7890625 98.66796875 C-12.1396875 98.17296875 -12.4903125 97.67796875 -12.8515625 97.16796875 C-15.5421153 98.38804819 -15.5421153 98.38804819 -17.8515625 100.16796875 C-23.0260312 100.47843687 -26.99887184 99.7525208 -31.8515625 98.16796875 C-31.7896875 99.05484375 -31.7278125 99.94171875 -31.6640625 100.85546875 C-31.87297556 104.54626621 -32.67026846 106.23161139 -34.8515625 109.16796875 C-38.25023102 110.86730301 -41.97952499 110.47846576 -45.7265625 110.54296875 C-46.95052734 110.59904297 -46.95052734 110.59904297 -48.19921875 110.65625 C-48.98941406 110.66785156 -49.77960937 110.67945313 -50.59375 110.69140625 C-51.67438721 110.72113525 -51.67438721 110.72113525 -52.77685547 110.75146484 C-54.8515625 110.16796875 -54.8515625 110.16796875 -57.06640625 108.41381836 C-59.84325695 103.36482628 -59.5748801 98.39020567 -59.671875 92.7109375 C-59.7026413 91.49400711 -59.73340759 90.27707672 -59.7651062 89.02326965 C-59.82348073 86.45053547 -59.87158134 83.87755057 -59.91015625 81.30444336 C-59.97616888 77.37887586 -60.09558953 73.45734186 -60.21875 69.53320312 C-60.26889096 67.03001121 -60.31586962 64.52675354 -60.359375 62.0234375 C-60.39966827 60.85548141 -60.43996155 59.68752533 -60.48147583 58.48417664 C-60.53446219 50.74679266 -59.11296608 46.78623565 -53.8515625 41.16796875 C-53.1915625 40.17796875 -52.5315625 39.18796875 -51.8515625 38.16796875 C-52.4909375 38.02359375 -53.1303125 37.87921875 -53.7890625 37.73046875 C-55.8515625 37.16796875 -55.8515625 37.16796875 -56.8515625 36.16796875 C-57.15400568 32.84109379 -56.99779756 30.54645949 -55.7890625 27.41796875 C-53.12059777 24.31910648 -50.81817952 23.92025819 -46.8515625 23.16796875 C-43.9140625 23.04296875 -43.9140625 23.04296875 -41.8515625 23.16796875 C-41.59117188 22.29527344 -41.33078125 21.42257813 -41.0625 20.5234375 C-39.85113647 17.16678825 -38.3938131 14.48192875 -36.4765625 11.48046875 C-35.89132813 10.54847656 -35.30609375 9.61648437 -34.703125 8.65625 C-31.87443451 4.85482417 -29.30581318 2.97300987 -24.6640625 2.04296875 C-23.62185547 1.82253906 -23.62185547 1.82253906 -22.55859375 1.59765625 C-15.0258378 0.4019807 -7.62247859 0.00886885 0 0 Z M-28.44042969 9.50097656 C-32.75747749 14.10456604 -35.02480019 19.49199152 -37.4765625 25.23046875 C-40.66105528 32.40959925 -44.01394142 38.02721872 -49.4765625 43.66796875 C-53.22582318 47.65921037 -55.64023093 50.60947383 -55.7265625 56.29296875 C-55.49136357 58.59111736 -55.19107217 60.8829001 -54.8515625 63.16796875 C-54.68964043 64.8506683 -54.53804813 66.53438085 -54.39453125 68.21875 C-53.77967771 75.23928265 -53.10413102 82.22806208 -51.8515625 89.16796875 C-51.23667969 88.74644531 -50.62179688 88.32492188 -49.98828125 87.890625 C-49.18003906 87.34277344 -48.37179688 86.79492188 -47.5390625 86.23046875 C-46.73855469 85.68519531 -45.93804687 85.13992187 -45.11328125 84.578125 C-41.8510496 82.54416019 -39.28370296 82.04172372 -35.52046204 82.02079773 C-34.19376747 82.01006477 -34.19376747 82.01006477 -32.840271 81.99911499 C-31.8724469 81.99642609 -30.9046228 81.99373718 -29.9074707 81.9909668 C-28.88600449 81.9843956 -27.86453827 81.9778244 -26.81211853 81.97105408 C-23.42552621 81.95131459 -20.03897827 81.93965636 -16.65234375 81.9296875 C-15.49562857 81.92561197 -14.33891338 81.92153645 -13.14714622 81.91733742 C-7.0236364 81.8964729 -0.90014901 81.88217338 5.22338867 81.87280273 C11.54400866 81.86174365 17.8642761 81.82735018 24.18477154 81.78763103 C29.04816842 81.76146618 33.91148133 81.75311093 38.7749424 81.74952126 C41.10449413 81.74465421 43.43404208 81.73303694 45.76352501 81.71448326 C49.02842376 81.69009779 52.29241082 81.69105631 55.55737305 81.69799805 C56.51507599 81.68518799 57.47277893 81.67237793 58.45950317 81.65917969 C64.69170824 81.70734029 68.8252479 82.99566838 74.1484375 86.16796875 C75.47723594 86.84362912 76.80946729 87.51269704 78.1484375 88.16796875 C79.56291224 80.66987933 80.56282214 73.24135939 80.95703125 65.6171875 C81.1484375 62.16796875 81.1484375 62.16796875 81.55859375 59 C81.98864279 54.31791676 82.06638617 51.40600372 79.19921875 47.5390625 C77.4500526 45.74168043 75.67640121 43.96789938 73.8828125 42.21484375 C70.72005317 38.9373958 68.83800372 35.25617629 66.8984375 31.16796875 C66.57311035 30.48404053 66.2477832 29.8001123 65.91259766 29.09545898 C65.28107839 27.75223519 64.65352467 26.40713864 64.03027344 25.06005859 C59.53610217 14.40117023 59.53610217 14.40117023 51.1484375 7.16796875 C42.05771637 5.30233002 32.77970594 4.72573677 23.5234375 4.41796875 C22.29157715 4.37631592 21.0597168 4.33466309 19.79052734 4.29174805 C-5.45875129 2.47841675 -5.45875129 2.47841675 -28.44042969 9.50097656 Z M71.1484375 28.16796875 C71.8084375 30.14796875 72.4684375 32.12796875 73.1484375 34.16796875 C74.7984375 33.83796875 76.4484375 33.50796875 78.1484375 33.16796875 C77.50863901 31.13555148 77.50863901 31.13555148 76.1484375 29.16796875 C73.59323829 28.35625647 73.59323829 28.35625647 71.1484375 28.16796875 Z M-50.8515625 30.16796875 C-51.1815625 31.15796875 -51.5115625 32.14796875 -51.8515625 33.16796875 C-49.3765625 33.66296875 -49.3765625 33.66296875 -46.8515625 34.16796875 C-46.1915625 32.18796875 -45.5315625 30.20796875 -44.8515625 28.16796875 C-47.38143145 28.16796875 -48.70568866 28.85275575 -50.8515625 30.16796875 Z M-45.8515625 90.16796875 C-46.1815625 91.15796875 -46.5115625 92.14796875 -46.8515625 93.16796875 C-40.5815625 93.16796875 -34.3115625 93.16796875 -27.8515625 93.16796875 C-27.1915625 91.84796875 -26.5315625 90.52796875 -25.8515625 89.16796875 C-22.4765625 88.23046875 -22.4765625 88.23046875 -18.8515625 88.16796875 C-16.4140625 89.60546875 -16.4140625 89.60546875 -14.8515625 91.16796875 C-12.1610097 89.94788931 -12.1610097 89.94788931 -9.8515625 88.16796875 C-6.9765625 87.91796875 -6.9765625 87.91796875 -3.8515625 88.16796875 C-3.16961571 88.90531754 -3.16961571 88.90531754 -2.47389221 89.65756226 C-0.23562211 91.74141591 1.20561205 91.55762151 4.23071289 91.58447266 C5.26511002 91.60103912 6.29950714 91.61760559 7.36524963 91.63467407 C9.03876747 91.63955338 9.03876747 91.63955338 10.74609375 91.64453125 C11.8912999 91.66011078 13.03650604 91.67569031 14.21641541 91.69174194 C17.88124908 91.73935198 21.54589151 91.7670555 25.2109375 91.79296875 C28.87941934 91.82942095 32.54779189 91.87001247 36.21617126 91.9156189 C38.50090669 91.9429061 40.78572228 91.96423084 43.0705719 91.97915649 C44.10181686 91.98941864 45.13306183 91.99968079 46.19555664 92.01025391 C47.56098351 92.01999741 47.56098351 92.01999741 48.95399475 92.02993774 C51.1484375 92.16796875 51.1484375 92.16796875 53.1484375 93.16796875 C54.66992076 93.25169534 56.19499528 93.27526902 57.71875 93.265625 C59.06259766 93.26079102 59.06259766 93.26079102 60.43359375 93.25585938 C61.37074219 93.24748047 62.30789062 93.23910156 63.2734375 93.23046875 C64.69076172 93.22370117 64.69076172 93.22370117 66.13671875 93.21679688 C68.47402137 93.20499232 70.81119811 93.18852634 73.1484375 93.16796875 C70.72802086 89.88311759 68.95364516 87.68888825 65.1484375 86.16796875 C63.02562994 85.86587992 63.02562994 85.86587992 60.76628113 85.90054321 C59.89582657 85.89201324 59.02537201 85.88348328 58.12854004 85.87469482 C57.18144165 85.8756012 56.23434326 85.87650757 55.25854492 85.87744141 C53.75297783 85.86736557 53.75297783 85.86736557 52.21699524 85.85708618 C48.89591533 85.83807472 45.57503721 85.83418025 42.25390625 85.83203125 C39.94468604 85.82560509 37.63546666 85.81887687 35.32624817 85.81185913 C30.48334872 85.79987818 25.64052065 85.79617911 20.79760742 85.79736328 C14.59683488 85.79756642 8.39652094 85.77027314 2.19585705 85.73581886 C-2.57486567 85.71356239 -7.34547786 85.70952538 -12.11624718 85.71058273 C-14.40195991 85.70822455 -16.68767558 85.69938887 -18.97333717 85.683918 C-22.17371173 85.66428583 -25.37309525 85.67008601 -28.57348633 85.68212891 C-29.51451202 85.67088989 -30.45553772 85.65965088 -31.42507935 85.64807129 C-37.38694599 85.70497556 -41.01335689 86.59391637 -45.8515625 90.16796875 Z M-22.8515625 92.16796875 C-22.8515625 93.15796875 -22.8515625 94.14796875 -22.8515625 95.16796875 C-21.8615625 95.16796875 -20.8715625 95.16796875 -19.8515625 95.16796875 C-19.8515625 94.17796875 -19.8515625 93.18796875 -19.8515625 92.16796875 C-20.8415625 92.16796875 -21.8315625 92.16796875 -22.8515625 92.16796875 Z M-7.8515625 92.16796875 C-7.8515625 93.15796875 -7.8515625 94.14796875 -7.8515625 95.16796875 C-6.8615625 95.16796875 -5.8715625 95.16796875 -4.8515625 95.16796875 C-5.1815625 94.17796875 -5.5115625 93.18796875 -5.8515625 92.16796875 C-6.5115625 92.16796875 -7.1715625 92.16796875 -7.8515625 92.16796875 Z M-53.8515625 98.16796875 C-53.8515625 100.14796875 -53.8515625 102.12796875 -53.8515625 104.16796875 C-50.64531363 106.305468 -49.62698147 106.46371874 -45.9140625 106.48046875 C-44.63208984 106.50560547 -44.63208984 106.50560547 -43.32421875 106.53125 C-40.29655339 106.08642713 -38.94645685 105.39895833 -36.8515625 103.16796875 C-36.8515625 101.51796875 -36.8515625 99.86796875 -36.8515625 98.16796875 C-42.4615625 98.16796875 -48.0715625 98.16796875 -53.8515625 98.16796875 Z M63.1484375 98.16796875 C62.69680413 102.82320852 62.69680413 102.82320852 64.3046875 104.9609375 C66.83529266 106.61762605 68.6447841 106.53295194 71.6484375 106.48046875 C72.6075 106.47660156 73.5665625 106.47273438 74.5546875 106.46875 C77.3832637 106.34014623 77.3832637 106.34014623 80.1484375 104.16796875 C80.1484375 102.18796875 80.1484375 100.20796875 80.1484375 98.16796875 C74.5384375 98.16796875 68.9284375 98.16796875 63.1484375 98.16796875 Z " fill="#000000" transform="translate(86.8515625,44.83203125)"/>
<path d="M0 0 C0.92597488 -0.00686325 1.85194977 -0.0137265 2.8059845 -0.02079773 C5.85657227 -0.03904827 8.90664491 -0.03523066 11.95727539 -0.02954102 C14.08427599 -0.03410364 16.21127511 -0.03940945 18.33827209 -0.04542542 C22.79263301 -0.0543531 27.24681459 -0.0519372 31.70117188 -0.04199219 C37.40196415 -0.03050296 43.10213696 -0.05071541 48.80284786 -0.07990932 C53.19442154 -0.0982784 57.58584696 -0.09797742 61.97744942 -0.0922718 C64.07894319 -0.09211868 66.18044707 -0.09815584 68.28190422 -0.11056328 C71.22348475 -0.12548455 74.16392331 -0.1147875 77.10546875 -0.09765625 C78.4000853 -0.1121582 78.4000853 -0.1121582 79.72085571 -0.12695312 C86.21182895 -0.04802114 90.64235274 1.48128291 95.39477539 6.15014648 C95.77762695 6.70831055 96.16047852 7.26647461 96.55493164 7.84155273 C96.95583008 8.39713867 97.35672852 8.95272461 97.76977539 9.52514648 C98.61743164 11.40405273 98.61743164 11.40405273 98.61743164 16.40405273 C86.07743164 16.40405273 73.53743164 16.40405273 60.61743164 16.40405273 C58.61743164 12.40405273 58.61743164 12.40405273 58.61743164 5.40405273 C45.41743164 5.40405273 32.21743164 5.40405273 18.61743164 5.40405273 C18.61743164 7.71405273 18.61743164 10.02405273 18.61743164 12.40405273 C17.95743164 13.72405273 17.29743164 15.04405273 16.61743164 16.40405273 C4.07743164 16.40405273 -8.46256836 16.40405273 -21.38256836 16.40405273 C-21.38256836 10.71174504 -21.38256836 10.71174504 -18.75756836 7.27905273 C-18.27030273 6.61647461 -17.78303711 5.95389648 -17.28100586 5.27124023 C-12.13697095 0.21188079 -6.79915996 -0.03538014 0 0 Z M-14.38256836 10.40405273 C-14.38256836 10.73405273 -14.38256836 11.06405273 -14.38256836 11.40405273 C-5.14256836 11.40405273 4.09743164 11.40405273 13.61743164 11.40405273 C13.61743164 9.42405273 13.61743164 7.44405273 13.61743164 5.40405273 C10.07620337 5.2580366 6.5357552 5.16974714 2.99243164 5.09155273 C1.49389648 5.02871094 1.49389648 5.02871094 -0.03491211 4.96459961 C-6.63857964 4.85526737 -9.89530452 5.41905485 -14.38256836 10.40405273 Z M62.61743164 5.40405273 C62.94743164 7.38405273 63.27743164 9.36405273 63.61743164 11.40405273 C72.85743164 11.40405273 82.09743164 11.40405273 91.61743164 11.40405273 C88.33914295 6.59030081 88.33914295 6.59030081 85.61743164 5.40405273 C83.87698994 5.31955645 82.13333442 5.2968225 80.39086914 5.30639648 C78.84399414 5.31123047 78.84399414 5.31123047 77.26586914 5.31616211 C76.18563477 5.32454102 75.10540039 5.33291992 73.99243164 5.34155273 C72.90446289 5.34606445 71.81649414 5.35057617 70.69555664 5.35522461 C68.00279375 5.36703497 65.31013976 5.38350495 62.61743164 5.40405273 Z " fill="#000000" transform="translate(61.382568359375,79.595947265625)"/>
<path d="M0 0 C2.32949324 0.00536525 4.65879376 0.00001439 6.98828125 -0.00634766 C37.05358142 -0.02224198 37.05358142 -0.02224198 43.45703125 6.19287109 C50.33203125 16.96370443 50.33203125 16.96370443 50.33203125 23.13037109 C47.02246675 24.78515335 43.32931933 24.26842979 39.69140625 24.25976562 C38.34979431 24.2623941 38.34979431 24.2623941 36.9810791 24.26507568 C34.01471027 24.26948898 31.04840072 24.26655803 28.08203125 24.26318359 C26.02701811 24.26385678 23.97200505 24.26482693 21.91699219 24.26608276 C17.60611209 24.26755903 13.29525269 24.26540746 8.984375 24.26074219 C3.44910027 24.25504495 -2.08612598 24.25832433 -7.62139893 24.26431465 C-11.86605192 24.26792218 -16.11069335 24.26678079 -20.35534668 24.26418686 C-22.39676926 24.26351812 -24.43819289 24.26434416 -26.47961426 24.26666641 C-29.32888585 24.26919605 -32.17807809 24.26534789 -35.02734375 24.25976562 C-36.3022467 24.26280197 -36.3022467 24.26280197 -37.60290527 24.26589966 C-43.4394409 24.24463502 -43.4394409 24.24463502 -45.66796875 23.13037109 C-45.32866985 15.32649646 -41.58729404 8.98018864 -36.04296875 3.56787109 C-26.52594262 -2.1924342 -10.88009992 -0.02971456 0 0 Z M-34.66796875 9.13037109 C-36.31359421 11.5822942 -36.31359421 11.5822942 -37.48046875 14.31787109 C-38.20963542 15.92203776 -38.93880208 17.52620443 -39.66796875 19.13037109 C-26.58960915 19.90876045 -13.56037096 20.29058066 -0.45898438 20.26074219 C2.33078438 20.25537349 5.12039224 20.26073614 7.91015625 20.26708984 C20.07895906 20.27109274 32.18528584 19.85331324 44.33203125 19.13037109 C43.99647217 18.39214111 43.66091309 17.65391113 43.31518555 16.89331055 C42.5148112 15.13248698 41.71443685 13.37166341 40.9140625 11.61083984 C39.01762119 8.63740717 37.46656862 7.71028913 34.33203125 6.13037109 C24.80418606 4.31595923 14.51405675 4.97527657 4.83007812 5 C2.3358757 5.00536283 -0.15814673 5.00002009 -2.65234375 4.99365234 C-19.47217924 3.97372156 -19.47217924 3.97372156 -34.66796875 9.13037109 Z " fill="#000000" transform="translate(97.66796875,50.86962890625)"/>
</svg>
