<?xml version="1.0" standalone="no"?>
<!DOCTYPE svg PUBLIC "-//W3C//DTD SVG 20010904//EN"
 "http://www.w3.org/TR/2001/REC-SVG-20010904/DTD/svg10.dtd">
<svg version="1.0" xmlns="http://www.w3.org/2000/svg"
 width="626.000000pt" height="626.000000pt" viewBox="0 0 626.000000 626.000000"
 preserveAspectRatio="xMidYMid meet">

<g transform="translate(0.000000,626.000000) scale(0.100000,-0.100000)"
fill="#000000" stroke="none">
<path d="M1264 5916 c-60 -28 -117 -91 -138 -154 -10 -27 -16 -80 -16 -132 0
-107 24 -163 85 -197 l40 -23 1893 0 c2109 0 1933 -6 1990 68 25 32 27 44 30
142 3 93 1 114 -19 159 -26 62 -100 132 -157 149 -30 9 -479 12 -1848 12
l-1809 0 -51 -24z m3680 -100 c18 -8 46 -31 62 -52 26 -33 29 -47 32 -120 4
-73 2 -84 -17 -103 l-21 -21 -1869 0 -1870 0 -20 26 c-37 47 -22 182 26 236
43 49 -41 47 1861 48 1502 0 1788 -2 1816 -14z"/>
<path d="M1245 5327 l-25 -22 45 -661 c24 -363 47 -668 51 -677 14 -39 90 -32
100 8 9 38 -75 1306 -89 1334 -19 37 -52 45 -82 18z"/>
<path d="M1429 5316 c-10 -20 6 -106 86 -483 135 -635 124 -596 158 -607 30
-11 53 -2 70 25 11 17 -206 1053 -225 1076 -6 7 -26 13 -44 13 -27 0 -37 -6
-45 -24z"/>
<path d="M1654 5319 c-18 -20 -16 -28 90 -454 82 -329 114 -442 132 -467 31
-41 95 -85 145 -98 24 -7 415 -9 1131 -8 l1093 3 54 30 c95 53 96 55 216 535
102 412 106 431 91 455 -18 28 -66 34 -85 12 -6 -7 -57 -201 -115 -431 -114
-458 -115 -460 -195 -485 -28 -8 -329 -11 -1087 -11 -996 0 -1051 1 -1089 19
-22 10 -48 28 -58 39 -13 14 -55 164 -123 438 -58 230 -110 424 -116 431 -16
20 -63 16 -84 -8z"/>
<path d="M4940 5325 c-18 -22 -107 -1328 -92 -1360 15 -32 76 -36 92 -6 16 31
103 1331 91 1358 -8 17 -19 23 -45 23 -18 0 -39 -7 -46 -15z"/>
<path d="M4720 5279 c0 -8 -48 -240 -107 -516 -104 -491 -106 -503 -88 -523
21 -23 67 -27 84 -7 15 19 231 1030 222 1040 -4 4 -31 10 -59 14 -41 4 -52 3
-52 -8z"/>
<path d="M1650 4149 c-66 -26 -170 -162 -248 -322 -89 -180 -173 -427 -188
-550 -5 -42 -31 -96 -132 -272 -147 -258 -272 -508 -310 -620 l-27 -80 -3
-424 c-2 -270 1 -450 8 -495 24 -158 122 -296 259 -364 l75 -37 2046 0 2046 0
75 37 c137 68 235 206 259 364 7 45 10 226 8 495 l-3 424 -32 92 c-41 117
-159 352 -307 611 -110 193 -117 209 -136 305 -31 154 -92 324 -180 502 -80
162 -141 251 -213 309 l-39 31 -1466 2 c-953 1 -1476 -2 -1492 -8z m2930 -114
c94 -49 312 -514 350 -750 7 -38 13 -79 16 -90 2 -11 62 -123 134 -250 154
-269 259 -479 295 -588 l26 -77 -3 -458 c-3 -450 -3 -458 -26 -513 -28 -69
-88 -140 -150 -177 l-47 -27 -2045 0 -2045 0 -47 27 c-62 37 -122 108 -150
177 -23 55 -23 64 -26 511 l-3 455 27 83 c34 105 147 330 303 602 122 211 124
216 141 315 9 55 36 155 58 223 75 221 226 502 290 537 41 22 2859 22 2902 0z"/>
<path d="M1975 3926 c-207 -50 -374 -218 -430 -431 -23 -90 -23 -1449 1 -1518
21 -63 83 -130 152 -164 l57 -28 1370 0 c1323 0 1372 1 1419 19 65 25 133 88
162 151 l24 50 0 720 c0 801 2 776 -68 909 -48 93 -145 190 -238 238 -135 71
-77 68 -1299 67 -830 -1 -1112 -4 -1150 -13z m2280 -111 c174 -46 316 -187
354 -355 7 -29 11 -295 11 -733 0 -615 -2 -691 -16 -720 -23 -45 -44 -66 -86
-88 -36 -18 -82 -19 -1388 -19 -1306 0 -1352 1 -1388 19 -46 23 -67 46 -87 94
-13 31 -15 126 -15 705 0 414 4 690 10 723 33 175 176 326 351 373 83 23 2168
23 2254 1z"/>
<path d="M2070 3727 c-137 -46 -236 -136 -301 -272 -48 -100 -59 -169 -59
-390 0 -138 3 -175 16 -193 l15 -22 1389 0 1390 0 16 25 c14 22 16 52 11 238
-5 227 -10 255 -65 363 -61 120 -173 215 -300 254 -62 19 -94 20 -1056 20
l-991 -1 -65 -22z m2105 -115 c80 -36 125 -73 172 -135 68 -93 83 -158 83
-353 l0 -164 -1300 0 -1300 0 0 164 c0 135 4 175 19 227 33 105 107 195 201
244 86 45 65 44 1095 42 l980 -2 50 -23z"/>
<path d="M1218 2899 c-12 -6 -18 -22 -18 -44 0 -29 6 -39 39 -59 61 -39 71
-76 71 -277 0 -193 -7 -220 -66 -265 -36 -28 -42 -29 -168 -32 -72 -2 -137 -9
-143 -14 -19 -16 -15 -63 6 -82 17 -16 37 -17 158 -14 160 4 193 16 260 92 59
67 65 100 61 342 -3 209 -3 209 -31 257 -31 53 -98 107 -131 107 -12 0 -29 -5
-38 -11z"/>
<path d="M4954 2891 c-39 -24 -82 -79 -100 -128 -17 -50 -19 -418 -2 -475 15
-50 78 -122 132 -151 35 -18 61 -22 179 -25 121 -3 141 -2 158 14 21 19 25 66
7 82 -7 5 -72 12 -144 14 -126 3 -132 4 -168 32 -60 45 -66 72 -66 268 0 198
11 238 73 277 41 25 52 57 31 88 -18 29 -58 30 -100 4z"/>
<path d="M2336 1666 c-21 -13 -49 -41 -62 -62 -22 -35 -24 -51 -24 -161 0
-163 18 -204 105 -244 38 -18 82 -19 775 -19 693 0 737 1 775 19 87 40 105 81
105 245 0 116 -1 124 -27 164 -17 26 -44 50 -69 62 -39 19 -64 20 -790 20
l-749 0 -39 -24z m1539 -111 c23 -22 25 -32 25 -120 0 -151 89 -135 -770 -135
-859 0 -770 -16 -770 135 0 88 2 98 25 120 l24 25 721 0 721 0 24 -25z"/>
<path d="M937 1522 c-20 -22 -22 -63 -5 -80 17 -17 1219 -17 1236 0 20 20 15
76 -7 88 -13 6 -223 10 -614 10 -563 0 -595 -1 -610 -18z"/>
<path d="M4096 1524 c-19 -18 -21 -65 -4 -82 17 -17 1219 -17 1236 0 18 18 14
63 -6 81 -17 15 -74 17 -615 17 -528 0 -597 -2 -611 -16z"/>
<path d="M773 1030 c-12 -5 -25 -20 -29 -34 -3 -13 -4 -127 -2 -252 3 -213 5
-232 25 -270 35 -65 69 -100 125 -128 l52 -26 286 0 286 0 53 27 c55 27 105
84 128 146 7 20 12 101 12 213 1 163 -1 183 -17 197 -24 22 -55 22 -75 -1 -13
-14 -16 -50 -19 -194 -3 -196 -7 -207 -78 -255 -32 -22 -40 -23 -287 -23 -286
0 -304 4 -349 69 -24 35 -24 38 -24 264 l0 228 -25 24 c-26 27 -29 28 -62 15z"/>
<path d="M5429 1021 c-24 -19 -24 -22 -29 -258 -7 -345 7 -333 -373 -333 -247
0 -255 1 -287 23 -71 48 -75 59 -78 255 -3 144 -6 180 -19 194 -21 23 -56 23
-77 -1 -15 -17 -17 -41 -14 -207 3 -211 10 -235 76 -302 70 -69 84 -72 403
-72 l285 0 52 26 c56 28 90 63 125 128 20 38 22 57 25 270 2 125 1 238 -2 250
-3 13 -17 28 -31 34 -32 15 -28 15 -56 -7z"/>
</g>
</svg>
